<svg xmlns="http://www.w3.org/2000/svg" xmlns:xlink="http://www.w3.org/1999/xlink" width="500" zoomAndPan="magnify" viewBox="0 0 375 374.999991" height="500" preserveAspectRatio="xMidYMid meet" version="1.0"><defs><clipPath id="id1"><path d="M 1 0 L 374 0 L 374 375 L 1 375 Z M 1 0 " clip-rule="nonzero"/></clipPath><clipPath id="id2"><path d="M 257.242188 0.984375 L 261.316406 1.367188 L 265.355469 1.878906 L 269.359375 2.519531 L 273.335938 3.285156 L 277.257812 4.167969 L 281.144531 5.175781 L 284.988281 6.304688 L 288.78125 7.554688 L 292.519531 8.917969 L 296.210938 10.386719 L 299.851562 11.980469 L 303.425781 13.675781 L 306.953125 15.484375 L 310.40625 17.402344 L 313.804688 19.414062 L 317.128906 21.542969 L 320.386719 23.765625 L 323.582031 26.089844 L 326.695312 28.507812 L 329.726562 31.023438 L 332.691406 33.640625 L 335.566406 36.34375 L 338.355469 39.136719 L 341.070312 42.023438 L 343.6875 44.988281 L 346.214844 48.050781 L 348.652344 51.183594 L 350.992188 54.40625 L 353.234375 57.710938 L 355.378906 61.085938 L 357.421875 64.539062 L 359.355469 68.070312 L 361.183594 71.664062 L 362.898438 75.34375 L 364.5 79.085938 L 365.992188 82.894531 L 367.367188 86.765625 L 368.617188 90.695312 L 370.015625 95.71875 L 371.203125 100.753906 L 372.179688 105.789062 L 372.941406 110.820312 L 373.496094 115.855469 L 373.851562 120.863281 L 374 125.863281 L 373.949219 130.839844 L 373.707031 135.792969 L 373.265625 140.714844 L 372.640625 145.59375 L 371.820312 150.429688 L 370.820312 155.222656 L 369.644531 159.960938 L 368.277344 164.648438 L 366.734375 169.265625 L 365.019531 173.8125 L 363.132812 178.292969 L 361.078125 182.695312 L 358.859375 187.011719 L 356.476562 191.242188 L 353.933594 195.382812 L 351.226562 199.425781 L 348.375 203.363281 L 345.359375 207.195312 L 342.199219 210.90625 L 338.898438 214.511719 L 335.445312 217.984375 L 331.855469 221.328125 L 328.125 224.542969 L 324.253906 227.613281 L 320.257812 230.550781 L 316.128906 233.328125 L 311.863281 235.960938 L 307.480469 238.433594 L 302.980469 240.742188 L 298.347656 242.875 L 293.609375 244.839844 L 288.75 246.625 L 283.785156 248.226562 L 283.785156 358.636719 L 283.769531 359.285156 L 283.734375 359.9375 L 283.671875 360.570312 L 283.582031 361.195312 L 283.460938 361.820312 L 283.320312 362.429688 L 283.167969 363.039062 L 282.980469 363.628906 L 282.769531 364.214844 L 282.542969 364.78125 L 282.289062 365.34375 L 282.019531 365.894531 L 281.730469 366.429688 L 281.421875 366.957031 L 281.085938 367.460938 L 280.738281 367.964844 L 280.363281 368.445312 L 279.980469 368.914062 L 279.574219 369.371094 L 279.152344 369.800781 L 278.722656 370.222656 L 278.265625 370.628906 L 277.796875 371.011719 L 277.316406 371.382812 L 276.8125 371.734375 L 276.308594 372.066406 L 275.78125 372.375 L 275.242188 372.667969 L 274.691406 372.933594 L 274.128906 373.1875 L 273.5625 373.414062 L 272.976562 373.625 L 272.382812 373.8125 L 271.773438 373.964844 L 271.164062 374.101562 L 270.539062 374.226562 L 269.914062 374.3125 L 269.277344 374.378906 L 268.628906 374.410156 L 267.980469 374.429688 L 17.148438 374.429688 L 16.5 374.410156 L 15.851562 374.378906 L 15.214844 374.3125 L 14.589844 374.226562 L 13.964844 374.101562 L 13.355469 373.964844 L 12.746094 373.8125 L 12.152344 373.625 L 11.566406 373.414062 L 11 373.1875 L 10.4375 372.933594 L 9.886719 372.667969 L 9.347656 372.375 L 8.820312 372.066406 L 8.316406 371.734375 L 7.8125 371.382812 L 7.332031 371.011719 L 6.863281 370.628906 L 6.40625 370.222656 L 5.976562 369.800781 L 5.554688 369.371094 L 5.148438 368.914062 L 4.765625 368.445312 L 4.390625 367.964844 L 4.042969 367.460938 L 3.707031 366.957031 L 3.398438 366.429688 L 3.105469 365.894531 L 2.839844 365.34375 L 2.585938 364.78125 L 2.359375 364.214844 L 2.148438 363.628906 L 1.960938 363.039062 L 1.808594 362.429688 L 1.667969 361.820312 L 1.546875 361.195312 L 1.457031 360.570312 L 1.394531 359.9375 L 1.359375 359.285156 L 1.34375 358.636719 L 1.34375 162.046875 L 1.359375 161.398438 L 1.394531 160.75 L 1.457031 160.117188 L 1.546875 159.492188 L 1.667969 158.867188 L 1.808594 158.257812 L 1.960938 157.648438 L 2.148438 157.054688 L 2.359375 156.472656 L 2.585938 155.902344 L 2.839844 155.34375 L 3.105469 154.789062 L 3.398438 154.253906 L 3.707031 153.726562 L 4.042969 153.222656 L 4.390625 152.71875 L 4.765625 152.242188 L 5.148438 151.769531 L 5.554688 151.316406 L 5.976562 150.886719 L 6.40625 150.464844 L 6.863281 150.058594 L 7.332031 149.675781 L 7.8125 149.300781 L 8.316406 148.953125 L 8.820312 148.621094 L 9.347656 148.3125 L 9.886719 148.019531 L 10.4375 147.75 L 11 147.5 L 11.566406 147.273438 L 12.152344 147.0625 L 12.746094 146.875 L 13.355469 146.722656 L 13.964844 146.582031 L 14.589844 146.460938 L 15.214844 146.371094 L 15.851562 146.308594 L 16.5 146.273438 L 17.148438 146.257812 L 121.863281 146.257812 L 121.789062 145.789062 L 121.714844 145.308594 L 121.652344 144.835938 L 121.578125 144.367188 L 121.511719 143.886719 L 121.449219 143.417969 L 121.390625 142.9375 L 121.324219 142.46875 L 121.269531 141.988281 L 121.210938 141.507812 L 121.15625 141.039062 L 121.105469 140.558594 L 121.050781 140.089844 L 121 139.609375 L 120.953125 139.128906 L 120.910156 138.660156 L 120.863281 138.179688 L 120.820312 137.703125 L 120.78125 137.222656 L 120.742188 136.75 L 120.707031 136.273438 L 120.675781 135.792969 L 120.632812 135.3125 L 120.609375 134.835938 L 120.578125 134.355469 L 120.554688 133.878906 L 120.519531 133.40625 L 120.503906 132.925781 L 120.480469 132.449219 L 120.457031 131.96875 L 120.441406 131.492188 L 120.421875 131.011719 L 120.40625 130.53125 L 120.398438 130.054688 L 120.382812 129.574219 L 120.375 129.09375 L 120.367188 128.617188 L 120.367188 128.136719 L 120.359375 127.660156 L 120.359375 127.179688 L 120.464844 122.015625 L 120.773438 116.910156 L 121.285156 111.851562 L 121.992188 106.859375 L 122.886719 101.929688 L 123.976562 97.066406 L 125.25 92.277344 L 126.695312 87.5625 L 128.332031 82.933594 L 130.132812 78.378906 L 132.109375 73.921875 L 134.246094 69.546875 L 136.546875 65.277344 L 139 61.101562 L 141.609375 57.027344 L 144.371094 53.066406 L 147.273438 49.21875 L 150.320312 45.484375 L 153.5 41.871094 L 156.824219 38.378906 L 160.269531 35.011719 L 163.835938 31.78125 L 167.535156 28.6875 L 171.34375 25.730469 L 175.269531 22.921875 L 179.308594 20.25 L 183.453125 17.742188 L 187.695312 15.386719 L 192.042969 13.1875 L 196.480469 11.152344 L 201.007812 9.292969 L 205.621094 7.59375 L 210.320312 6.078125 L 215.097656 4.738281 L 219.949219 3.574219 L 224.867188 2.609375 L 229.855469 1.832031 L 234.910156 1.253906 L 240.015625 0.871094 L 245.183594 0.695312 L 245.273438 0.6875 L 245.371094 0.6875 L 245.460938 0.675781 L 245.558594 0.667969 L 245.648438 0.667969 L 245.746094 0.660156 L 245.832031 0.660156 L 245.929688 0.652344 L 246.019531 0.652344 L 246.117188 0.644531 L 246.304688 0.644531 L 246.394531 0.636719 L 246.867188 0.636719 L 246.953125 0.628906 L 247.148438 0.628906 L 247.238281 0.636719 L 247.710938 0.636719 L 247.800781 0.644531 L 247.988281 0.644531 L 248.085938 0.652344 L 248.175781 0.652344 L 248.273438 0.660156 L 248.359375 0.660156 L 248.457031 0.667969 L 248.546875 0.667969 L 248.644531 0.675781 L 248.734375 0.6875 L 248.832031 0.6875 L 248.921875 0.695312 L 249.003906 0.613281 L 253.140625 0.734375 Z M 9.46875 358.636719 L 9.480469 358.953125 L 9.496094 359.269531 L 9.527344 359.578125 L 9.566406 359.878906 L 9.625 360.179688 L 9.691406 360.480469 L 9.769531 360.773438 L 9.859375 361.066406 L 9.964844 361.347656 L 10.070312 361.625 L 10.195312 361.894531 L 10.324219 362.160156 L 10.46875 362.421875 L 10.625 362.679688 L 10.777344 362.925781 L 10.949219 363.167969 L 11.128906 363.402344 L 11.316406 363.628906 L 11.519531 363.847656 L 11.722656 364.058594 L 11.933594 364.261719 L 12.152344 364.464844 L 12.378906 364.652344 L 12.617188 364.832031 L 12.859375 365.003906 L 13.101562 365.15625 L 13.363281 365.3125 L 13.625 365.457031 L 13.890625 365.585938 L 14.160156 365.707031 L 14.4375 365.8125 L 14.71875 365.917969 L 15.011719 366.007812 L 15.304688 366.089844 L 15.605469 366.15625 L 15.90625 366.210938 L 16.207031 366.253906 L 16.515625 366.285156 L 16.832031 366.300781 L 17.148438 366.308594 L 267.980469 366.308594 L 268.296875 366.300781 L 268.613281 366.277344 L 268.921875 366.246094 L 269.222656 366.195312 L 269.523438 366.140625 L 269.824219 366.066406 L 270.117188 365.984375 L 270.398438 365.894531 L 270.683594 365.789062 L 270.960938 365.675781 L 271.238281 365.546875 L 271.496094 365.417969 L 271.757812 365.269531 L 272.007812 365.117188 L 272.261719 364.953125 L 272.496094 364.78125 L 272.734375 364.597656 L 272.960938 364.410156 L 273.171875 364.214844 L 273.382812 364.003906 L 273.585938 363.792969 L 273.78125 363.566406 L 273.96875 363.339844 L 274.148438 363.101562 L 274.308594 362.859375 L 274.472656 362.605469 L 274.617188 362.355469 L 274.757812 362.085938 L 274.886719 361.820312 L 275.007812 361.550781 L 275.113281 361.269531 L 275.210938 360.984375 L 275.300781 360.699219 L 275.375 360.398438 L 275.4375 360.105469 L 275.488281 359.796875 L 275.527344 359.496094 L 275.5625 359.1875 L 275.578125 358.871094 L 275.578125 227.96875 L 9.46875 227.96875 Z M 100.855469 243.632812 L 101.015625 243.648438 L 101.171875 243.664062 L 101.324219 243.695312 L 101.472656 243.730469 L 101.625 243.769531 L 101.78125 243.808594 L 101.925781 243.859375 L 102.074219 243.914062 L 102.21875 243.980469 L 102.367188 244.054688 L 102.503906 244.125 L 102.640625 244.207031 L 102.78125 244.296875 L 102.910156 244.386719 L 103.039062 244.484375 L 103.171875 244.589844 L 103.414062 244.816406 L 103.640625 245.058594 L 103.738281 245.191406 L 103.933594 245.449219 L 104.015625 245.585938 L 104.097656 245.726562 L 104.171875 245.863281 L 104.234375 246.011719 L 104.300781 246.15625 L 104.355469 246.300781 L 104.40625 246.449219 L 104.453125 246.601562 L 104.488281 246.757812 L 104.519531 246.902344 L 104.550781 247.058594 L 104.566406 247.210938 L 104.585938 247.367188 L 104.59375 247.519531 L 104.59375 247.835938 L 104.585938 247.992188 L 104.566406 248.144531 L 104.550781 248.300781 L 104.519531 248.453125 L 104.488281 248.601562 L 104.453125 248.753906 L 104.40625 248.90625 L 104.355469 249.054688 L 104.300781 249.199219 L 104.234375 249.347656 L 104.171875 249.492188 L 104.097656 249.628906 L 104.015625 249.769531 L 103.933594 249.90625 L 103.835938 250.035156 L 103.738281 250.167969 L 103.640625 250.296875 L 103.414062 250.539062 L 57.863281 296.042969 L 103.414062 341.589844 L 103.640625 341.832031 L 103.738281 341.960938 L 103.835938 342.09375 L 103.933594 342.222656 L 104.097656 342.496094 L 104.171875 342.636719 L 104.234375 342.78125 L 104.300781 342.929688 L 104.355469 343.074219 L 104.40625 343.21875 L 104.453125 343.375 L 104.488281 343.527344 L 104.519531 343.675781 L 104.550781 343.828125 L 104.566406 343.984375 L 104.585938 344.136719 L 104.59375 344.292969 L 104.59375 344.609375 L 104.585938 344.761719 L 104.566406 344.917969 L 104.550781 345.070312 L 104.519531 345.226562 L 104.488281 345.371094 L 104.453125 345.527344 L 104.40625 345.679688 L 104.355469 345.828125 L 104.300781 345.972656 L 104.234375 346.117188 L 104.171875 346.265625 L 104.097656 346.402344 L 104.015625 346.539062 L 103.933594 346.679688 L 103.738281 346.9375 L 103.640625 347.070312 L 103.414062 347.3125 L 103.300781 347.425781 L 103.234375 347.472656 L 103.179688 347.53125 L 103.113281 347.578125 L 103.046875 347.628906 L 102.992188 347.675781 L 102.925781 347.726562 L 102.863281 347.773438 L 102.789062 347.816406 L 102.722656 347.863281 L 102.660156 347.90625 L 102.585938 347.945312 L 102.519531 347.984375 L 102.445312 348.019531 L 102.382812 348.058594 L 102.308594 348.089844 L 102.234375 348.125 L 102.164062 348.15625 L 102.089844 348.1875 L 102.015625 348.214844 L 101.945312 348.246094 L 101.863281 348.269531 L 101.789062 348.292969 L 101.714844 348.320312 L 101.632812 348.34375 L 101.5625 348.359375 L 101.480469 348.382812 L 101.40625 348.398438 L 101.324219 348.417969 L 101.253906 348.433594 L 101.171875 348.441406 L 101.089844 348.457031 L 101.007812 348.464844 L 100.9375 348.472656 L 100.855469 348.480469 L 100.773438 348.480469 L 100.691406 348.488281 L 100.367188 348.488281 L 100.285156 348.480469 L 100.203125 348.480469 L 100.121094 348.472656 L 100.050781 348.464844 L 99.96875 348.457031 L 99.886719 348.441406 L 99.804688 348.433594 L 99.734375 348.417969 L 99.652344 348.398438 L 99.578125 348.382812 L 99.496094 348.359375 L 99.425781 348.34375 L 99.34375 348.320312 L 99.269531 348.292969 L 99.195312 348.269531 L 99.117188 348.246094 L 99.042969 348.214844 L 98.96875 348.1875 L 98.894531 348.15625 L 98.824219 348.125 L 98.75 348.089844 L 98.675781 348.058594 L 98.613281 348.019531 L 98.539062 347.984375 L 98.472656 347.945312 L 98.398438 347.90625 L 98.335938 347.863281 L 98.269531 347.816406 L 98.195312 347.773438 L 98.132812 347.726562 L 98.066406 347.675781 L 98.011719 347.628906 L 97.945312 347.578125 L 97.878906 347.53125 L 97.824219 347.472656 L 97.757812 347.425781 L 97.703125 347.367188 L 97.644531 347.3125 L 49.210938 298.964844 L 49.097656 298.84375 L 48.980469 298.722656 L 48.882812 298.59375 L 48.789062 298.464844 L 48.691406 298.332031 L 48.527344 298.058594 L 48.453125 297.917969 L 48.390625 297.773438 L 48.324219 297.628906 L 48.265625 297.480469 L 48.21875 297.335938 L 48.167969 297.179688 L 48.136719 297.027344 L 48.105469 296.878906 L 48.070312 296.726562 L 48.054688 296.570312 L 48.039062 296.417969 L 48.03125 296.261719 L 48.03125 295.945312 L 48.039062 295.792969 L 48.054688 295.636719 L 48.070312 295.484375 L 48.105469 295.328125 L 48.136719 295.183594 L 48.167969 295.027344 L 48.21875 294.875 L 48.265625 294.730469 L 48.324219 294.582031 L 48.390625 294.4375 L 48.453125 294.289062 L 48.527344 294.152344 L 48.609375 294.015625 L 48.691406 293.875 L 48.789062 293.746094 L 48.882812 293.617188 L 48.980469 293.488281 L 49.097656 293.363281 L 49.210938 293.242188 L 97.644531 244.816406 L 97.667969 244.792969 L 97.789062 244.679688 L 97.914062 244.566406 L 98.171875 244.371094 L 98.3125 244.273438 L 98.441406 244.191406 L 98.585938 244.109375 L 98.726562 244.035156 L 98.871094 243.972656 L 99.019531 243.90625 L 99.164062 243.851562 L 99.308594 243.800781 L 99.464844 243.753906 L 99.621094 243.71875 L 99.773438 243.6875 L 99.917969 243.664062 L 100.082031 243.640625 L 100.238281 243.621094 L 100.390625 243.613281 L 100.546875 243.613281 L 100.699219 243.621094 Z M 173.507812 243.632812 L 173.667969 243.648438 L 173.824219 243.664062 L 173.976562 243.695312 L 174.125 243.730469 L 174.277344 243.769531 L 174.433594 243.808594 L 174.578125 243.859375 L 174.726562 243.914062 L 174.871094 243.980469 L 175.019531 244.054688 L 175.15625 244.125 L 175.292969 244.207031 L 175.433594 244.296875 L 175.5625 244.386719 L 175.691406 244.484375 L 175.824219 244.589844 L 176.066406 244.816406 L 224.5 293.203125 L 224.613281 293.324219 L 224.730469 293.445312 L 224.828125 293.574219 L 224.921875 293.707031 L 225.019531 293.835938 L 225.101562 293.972656 L 225.183594 294.113281 L 225.257812 294.25 L 225.320312 294.394531 L 225.386719 294.542969 L 225.445312 294.6875 L 225.492188 294.835938 L 225.542969 294.988281 L 225.574219 295.144531 L 225.605469 295.289062 L 225.640625 295.441406 L 225.65625 295.597656 L 225.671875 295.75 L 225.679688 295.90625 L 225.679688 296.222656 L 225.671875 296.375 L 225.65625 296.53125 L 225.640625 296.683594 L 225.605469 296.839844 L 225.574219 296.984375 L 225.542969 297.140625 L 225.492188 297.292969 L 225.445312 297.441406 L 225.386719 297.585938 L 225.320312 297.734375 L 225.257812 297.878906 L 225.183594 298.015625 L 225.101562 298.15625 L 225.019531 298.292969 L 224.921875 298.421875 L 224.828125 298.550781 L 224.730469 298.683594 L 224.613281 298.804688 L 224.5 298.925781 L 176.230469 347.3125 L 176.171875 347.367188 L 176.113281 347.425781 L 176.050781 347.472656 L 175.992188 347.53125 L 175.929688 347.578125 L 175.863281 347.628906 L 175.804688 347.675781 L 175.742188 347.726562 L 175.675781 347.773438 L 175.601562 347.816406 L 175.539062 347.863281 L 175.472656 347.90625 L 175.398438 347.945312 L 175.335938 347.984375 L 175.261719 348.019531 L 175.195312 348.058594 L 175.125 348.089844 L 175.050781 348.125 L 174.976562 348.15625 L 174.90625 348.1875 L 174.832031 348.214844 L 174.757812 348.246094 L 174.675781 348.269531 L 174.605469 348.292969 L 174.53125 348.320312 L 174.449219 348.34375 L 174.375 348.359375 L 174.292969 348.382812 L 174.222656 348.398438 L 174.140625 348.417969 L 174.066406 348.433594 L 173.984375 348.441406 L 173.90625 348.457031 L 173.824219 348.464844 L 173.75 348.472656 L 173.667969 348.480469 L 173.585938 348.480469 L 173.507812 348.488281 L 173.179688 348.488281 L 173.101562 348.480469 L 173.019531 348.480469 L 172.9375 348.472656 L 172.863281 348.464844 L 172.785156 348.457031 L 172.703125 348.441406 L 172.621094 348.433594 L 172.546875 348.417969 L 172.464844 348.398438 L 172.394531 348.382812 L 172.3125 348.359375 L 172.238281 348.34375 L 172.15625 348.320312 L 172.085938 348.292969 L 172.011719 348.269531 L 171.929688 348.246094 L 171.855469 348.214844 L 171.785156 348.1875 L 171.636719 348.125 L 171.5625 348.089844 L 171.492188 348.058594 L 171.425781 348.019531 L 171.351562 347.984375 L 171.289062 347.945312 L 171.214844 347.90625 L 171.148438 347.863281 L 171.085938 347.816406 L 171.011719 347.773438 L 170.945312 347.726562 L 170.882812 347.675781 L 170.824219 347.628906 L 170.757812 347.578125 L 170.695312 347.53125 L 170.636719 347.472656 L 170.574219 347.425781 L 170.460938 347.3125 L 170.34375 347.191406 L 170.230469 347.070312 L 170.132812 346.9375 L 169.9375 346.679688 L 169.859375 346.539062 L 169.777344 346.402344 L 169.703125 346.265625 L 169.636719 346.117188 L 169.574219 345.972656 L 169.515625 345.828125 L 169.46875 345.679688 L 169.417969 345.527344 L 169.386719 345.371094 L 169.355469 345.226562 L 169.320312 345.070312 L 169.304688 344.917969 L 169.289062 344.761719 L 169.28125 344.609375 L 169.28125 344.292969 L 169.289062 344.136719 L 169.304688 343.984375 L 169.320312 343.828125 L 169.355469 343.675781 L 169.386719 343.527344 L 169.417969 343.375 L 169.46875 343.21875 L 169.515625 343.074219 L 169.574219 342.929688 L 169.636719 342.78125 L 169.703125 342.636719 L 169.777344 342.496094 L 169.859375 342.359375 L 169.9375 342.222656 L 170.035156 342.09375 L 170.132812 341.960938 L 170.230469 341.832031 L 170.34375 341.710938 L 170.460938 341.589844 L 215.886719 296.042969 L 170.296875 250.539062 L 170.070312 250.296875 L 169.972656 250.167969 L 169.875 250.035156 L 169.777344 249.90625 L 169.695312 249.769531 L 169.613281 249.628906 L 169.539062 249.492188 L 169.476562 249.347656 L 169.410156 249.199219 L 169.355469 249.054688 L 169.304688 248.90625 L 169.257812 248.753906 L 169.222656 248.601562 L 169.191406 248.453125 L 169.160156 248.300781 L 169.140625 248.144531 L 169.125 247.992188 L 169.117188 247.835938 L 169.117188 247.519531 L 169.125 247.367188 L 169.140625 247.210938 L 169.160156 247.058594 L 169.191406 246.902344 L 169.222656 246.757812 L 169.257812 246.601562 L 169.304688 246.449219 L 169.355469 246.300781 L 169.410156 246.15625 L 169.476562 246.011719 L 169.539062 245.863281 L 169.613281 245.726562 L 169.695312 245.585938 L 169.777344 245.449219 L 169.972656 245.191406 L 170.070312 245.058594 L 170.296875 244.816406 L 170.320312 244.792969 L 170.441406 244.679688 L 170.566406 244.566406 L 170.824219 244.371094 L 170.960938 244.273438 L 171.09375 244.191406 L 171.238281 244.109375 L 171.378906 244.035156 L 171.523438 243.972656 L 171.667969 243.90625 L 171.816406 243.851562 L 171.960938 243.800781 L 172.117188 243.753906 L 172.269531 243.71875 L 172.425781 243.6875 L 172.570312 243.664062 L 172.734375 243.640625 L 172.890625 243.621094 L 173.042969 243.613281 L 173.199219 243.613281 L 173.351562 243.621094 Z M 149.46875 243.632812 L 149.628906 243.648438 L 149.792969 243.671875 L 149.957031 243.703125 L 150.125 243.738281 L 150.28125 243.785156 L 150.441406 243.835938 L 150.597656 243.890625 L 150.753906 243.957031 L 150.898438 244.019531 L 151.035156 244.09375 L 151.183594 244.175781 L 151.320312 244.257812 L 151.449219 244.34375 L 151.582031 244.433594 L 151.703125 244.53125 L 151.824219 244.636719 L 151.9375 244.742188 L 152.050781 244.855469 L 152.15625 244.96875 L 152.253906 245.085938 L 152.351562 245.207031 L 152.449219 245.335938 L 152.53125 245.464844 L 152.621094 245.597656 L 152.695312 245.734375 L 152.765625 245.871094 L 152.832031 246.011719 L 152.898438 246.15625 L 152.953125 246.300781 L 153.003906 246.449219 L 153.042969 246.601562 L 153.085938 246.75 L 153.117188 246.902344 L 153.148438 247.066406 L 153.164062 247.21875 L 153.183594 247.375 L 153.191406 247.535156 L 153.191406 247.859375 L 153.183594 248.023438 L 153.15625 248.1875 L 153.132812 248.347656 L 153.109375 248.511719 L 153.066406 248.671875 L 128.6875 345.445312 L 128.640625 345.605469 L 128.589844 345.761719 L 128.535156 345.914062 L 128.476562 346.0625 L 128.402344 346.207031 L 128.332031 346.355469 L 128.257812 346.492188 L 128.167969 346.628906 L 128.078125 346.761719 L 127.988281 346.890625 L 127.890625 347.011719 L 127.785156 347.125 L 127.679688 347.246094 L 127.574219 347.351562 L 127.460938 347.457031 L 127.339844 347.5625 L 127.21875 347.652344 L 127.09375 347.75 L 126.964844 347.832031 L 126.835938 347.921875 L 126.695312 347.992188 L 126.558594 348.066406 L 126.421875 348.132812 L 126.273438 348.1875 L 126.128906 348.246094 L 125.980469 348.292969 L 125.835938 348.34375 L 125.679688 348.382812 L 125.527344 348.417969 L 125.371094 348.441406 L 125.21875 348.464844 L 125.0625 348.480469 L 124.902344 348.488281 L 124.738281 348.488281 L 124.585938 348.480469 L 124.421875 348.472656 L 124.257812 348.457031 L 124.097656 348.433594 L 123.933594 348.40625 L 123.773438 348.367188 L 123.609375 348.328125 L 123.453125 348.277344 L 123.300781 348.222656 L 123.144531 348.15625 L 123 348.089844 L 122.851562 348.019531 L 122.578125 347.855469 L 122.445312 347.765625 L 122.316406 347.675781 L 122.1875 347.578125 L 122.074219 347.484375 L 121.953125 347.378906 L 121.84375 347.261719 L 121.730469 347.148438 L 121.4375 346.785156 L 121.359375 346.65625 L 121.269531 346.523438 L 121.121094 346.25 L 121.050781 346.109375 L 120.992188 345.972656 L 120.933594 345.828125 L 120.886719 345.671875 L 120.835938 345.527344 L 120.796875 345.371094 L 120.765625 345.21875 L 120.742188 345.0625 L 120.714844 344.910156 L 120.699219 344.746094 L 120.691406 344.59375 L 120.683594 344.429688 L 120.691406 344.269531 L 120.699219 344.105469 L 120.714844 343.941406 L 120.742188 343.78125 L 120.765625 343.617188 L 120.804688 343.457031 L 145.183594 246.683594 L 145.226562 246.519531 L 145.28125 246.367188 L 145.339844 246.210938 L 145.398438 246.058594 L 145.46875 245.914062 L 145.542969 245.765625 L 145.617188 245.628906 L 145.695312 245.488281 L 145.785156 245.359375 L 145.882812 245.230469 L 146.078125 244.988281 L 146.191406 244.875 L 146.296875 244.757812 L 146.414062 244.652344 L 146.535156 244.546875 L 146.65625 244.449219 L 146.777344 244.363281 L 146.90625 244.273438 L 147.046875 244.191406 L 147.175781 244.109375 L 147.3125 244.046875 L 147.460938 243.972656 L 147.597656 243.914062 L 147.746094 243.859375 L 147.898438 243.808594 L 148.046875 243.761719 L 148.199219 243.71875 L 148.355469 243.6875 L 148.507812 243.664062 L 148.664062 243.640625 L 148.824219 243.632812 L 148.988281 243.613281 L 149.144531 243.613281 L 149.304688 243.621094 Z M 307.554688 196.1875 L 307.082031 197.535156 L 306.589844 198.875 L 306.085938 200.207031 L 305.5625 201.535156 L 305.027344 202.859375 L 304.476562 204.175781 L 303.90625 205.480469 L 303.320312 206.78125 L 302.71875 208.070312 L 302.101562 209.355469 L 301.46875 210.628906 L 300.816406 211.894531 L 300.160156 213.15625 L 299.476562 214.40625 L 298.785156 215.648438 L 298.078125 216.878906 L 297.355469 218.105469 L 296.617188 219.324219 L 295.859375 220.535156 L 295.089844 221.734375 L 294.308594 222.921875 L 293.511719 224.097656 L 292.699219 225.265625 L 291.871094 226.429688 L 291.027344 227.582031 L 290.171875 228.726562 L 289.304688 229.855469 L 288.417969 230.972656 L 287.523438 232.078125 L 286.605469 233.183594 L 285.679688 234.269531 L 284.734375 235.351562 L 283.785156 236.414062 L 283.785156 239.742188 L 285.816406 239.09375 L 288.417969 238.160156 L 291.667969 236.902344 L 294.226562 235.804688 L 297.398438 234.425781 L 299.875 233.207031 L 302.964844 231.625 L 305.402344 230.242188 L 305.492188 230.195312 L 305.574219 230.15625 L 305.660156 230.105469 L 305.75 230.058594 L 305.832031 230.015625 L 305.921875 229.96875 L 306.003906 229.917969 L 306.09375 229.871094 L 306.183594 229.820312 L 306.261719 229.773438 L 306.351562 229.722656 L 306.433594 229.675781 L 306.523438 229.625 L 306.605469 229.578125 L 306.695312 229.53125 L 306.773438 229.480469 L 306.863281 229.433594 L 306.945312 229.382812 L 307.035156 229.335938 L 307.117188 229.285156 L 307.207031 229.230469 L 307.375 229.132812 L 307.457031 229.082031 L 307.546875 229.035156 L 307.628906 228.984375 L 307.71875 228.9375 L 307.808594 228.878906 L 307.886719 228.832031 L 307.976562 228.78125 L 308.058594 228.734375 L 308.148438 228.683594 L 308.238281 228.636719 L 308.320312 228.585938 L 308.410156 228.539062 L 310.765625 227.035156 L 313.648438 225.167969 L 315.964844 223.546875 L 316.046875 223.488281 L 316.128906 223.425781 L 316.210938 223.367188 L 316.285156 223.3125 L 316.363281 223.253906 L 316.445312 223.195312 L 316.527344 223.132812 L 316.609375 223.074219 L 316.691406 223.019531 L 316.761719 222.960938 L 316.84375 222.90625 L 317.007812 222.789062 L 317.085938 222.726562 L 317.160156 222.667969 L 317.242188 222.613281 L 317.324219 222.554688 L 317.40625 222.5 L 317.476562 222.441406 L 317.558594 222.375 L 317.640625 222.320312 L 317.722656 222.261719 L 317.792969 222.207031 L 317.875 222.140625 L 317.957031 222.085938 L 318.03125 222.027344 L 318.113281 221.964844 L 318.183594 221.90625 L 318.265625 221.839844 L 318.347656 221.785156 L 318.421875 221.71875 L 318.5 221.664062 L 318.574219 221.597656 L 318.65625 221.539062 L 318.730469 221.476562 L 320.964844 219.769531 L 323.644531 217.578125 L 325.800781 215.710938 L 325.871094 215.648438 L 326.019531 215.515625 L 326.09375 215.445312 L 326.164062 215.378906 L 326.238281 215.3125 L 326.3125 215.25 L 326.382812 215.183594 L 326.457031 215.117188 L 326.53125 215.046875 L 326.605469 214.980469 L 326.675781 214.917969 L 326.824219 214.785156 L 326.898438 214.714844 L 326.96875 214.648438 L 327.035156 214.582031 L 327.109375 214.519531 L 327.179688 214.445312 L 327.253906 214.378906 L 327.328125 214.316406 L 327.402344 214.25 L 327.472656 214.175781 L 327.539062 214.113281 L 327.613281 214.046875 L 327.683594 213.972656 L 327.757812 213.910156 L 327.824219 213.835938 L 327.894531 213.769531 L 327.96875 213.707031 L 328.042969 213.632812 L 328.109375 213.570312 L 328.179688 213.496094 L 328.320312 213.355469 L 330.433594 211.367188 L 332.789062 208.933594 L 332.84375 208.867188 L 332.910156 208.8125 L 332.96875 208.746094 L 333.023438 208.679688 L 333.082031 208.625 L 333.144531 208.558594 L 333.203125 208.503906 L 333.261719 208.4375 L 333.316406 208.371094 L 333.382812 208.316406 L 333.4375 208.25 L 333.496094 208.195312 L 333.550781 208.128906 L 333.617188 208.070312 L 333.675781 208.007812 L 333.730469 207.949219 L 333.789062 207.886719 L 333.84375 207.828125 L 333.910156 207.765625 L 333.96875 207.707031 L 334.023438 207.640625 L 334.082031 207.585938 L 334.136719 207.519531 L 334.195312 207.464844 L 334.25 207.398438 L 334.308594 207.339844 L 334.363281 207.277344 L 334.421875 207.210938 L 334.480469 207.15625 L 334.535156 207.089844 L 334.59375 207.03125 L 334.648438 206.96875 L 334.707031 206.902344 L 334.761719 206.847656 L 334.820312 206.78125 L 335.46875 206.089844 L 334.738281 205.644531 L 333.277344 204.769531 L 332.535156 204.335938 L 331.796875 203.90625 L 331.050781 203.492188 L 330.308594 203.070312 L 329.5625 202.664062 L 328.804688 202.257812 L 328.050781 201.851562 L 327.292969 201.457031 L 326.539062 201.066406 L 325.773438 200.675781 L 325.011719 200.292969 L 324.246094 199.921875 L 323.484375 199.546875 L 322.710938 199.183594 L 321.9375 198.824219 L 321.160156 198.46875 L 320.378906 198.117188 L 319.597656 197.769531 L 318.820312 197.429688 L 318.039062 197.097656 L 317.25 196.761719 L 316.460938 196.4375 L 315.664062 196.113281 L 314.878906 195.796875 L 314.082031 195.488281 L 313.277344 195.1875 L 312.480469 194.886719 L 311.675781 194.59375 L 310.871094 194.304688 L 310.066406 194.019531 L 309.261719 193.742188 L 308.449219 193.46875 L 308.011719 194.832031 Z M 283.800781 222.449219 L 283.824219 222.492188 L 283.839844 222.539062 L 283.859375 222.578125 L 283.875 222.621094 L 283.890625 222.660156 L 283.90625 222.710938 L 283.914062 222.75 L 283.929688 222.800781 L 283.9375 222.839844 L 283.957031 222.886719 L 283.964844 222.929688 L 283.972656 222.976562 L 283.980469 223.019531 L 283.988281 223.066406 L 283.996094 223.109375 L 284.003906 223.15625 L 284.011719 223.195312 L 284.019531 223.246094 L 284.019531 223.292969 L 284.027344 223.335938 L 284.027344 223.382812 L 285.003906 222.027344 L 285.953125 220.65625 L 286.890625 219.277344 L 287.800781 217.878906 L 288.695312 216.476562 L 289.570312 215.054688 L 290.425781 213.625 L 291.261719 212.179688 L 292.074219 210.726562 L 292.863281 209.265625 L 293.632812 207.789062 L 294.390625 206.300781 L 295.113281 204.808594 L 295.828125 203.308594 L 296.511719 201.789062 L 297.175781 200.261719 L 297.828125 198.726562 L 298.453125 197.175781 L 299.054688 195.625 L 299.632812 194.058594 L 300.191406 192.492188 L 300.730469 190.910156 L 300.484375 190.828125 L 299.753906 190.617188 L 299.023438 190.414062 L 298.289062 190.203125 L 297.550781 190 L 296.8125 189.804688 L 296.0625 189.601562 L 295.316406 189.40625 L 294.5625 189.222656 L 293.804688 189.027344 L 293.050781 188.839844 L 292.285156 188.660156 L 291.519531 188.472656 L 290.757812 188.296875 L 289.992188 188.125 L 289.222656 187.953125 L 288.449219 187.785156 L 287.675781 187.621094 L 286.898438 187.460938 L 286.125 187.296875 L 285.34375 187.144531 L 284.566406 186.996094 L 283.785156 186.851562 L 283.785156 222.410156 Z M 16.832031 154.382812 L 16.515625 154.402344 L 16.207031 154.433594 L 15.90625 154.472656 L 15.605469 154.53125 L 15.304688 154.597656 L 15.011719 154.675781 L 14.71875 154.765625 L 14.4375 154.871094 L 14.160156 154.976562 L 13.890625 155.097656 L 13.625 155.230469 L 13.363281 155.375 L 13.101562 155.53125 L 12.859375 155.683594 L 12.617188 155.855469 L 12.378906 156.03125 L 12.152344 156.21875 L 11.933594 156.421875 L 11.722656 156.625 L 11.519531 156.835938 L 11.316406 157.054688 L 11.128906 157.28125 L 10.949219 157.519531 L 10.777344 157.761719 L 10.625 158.003906 L 10.46875 158.265625 L 10.324219 158.523438 L 10.195312 158.792969 L 10.070312 159.0625 L 9.964844 159.335938 L 9.859375 159.621094 L 9.769531 159.914062 L 9.691406 160.207031 L 9.625 160.507812 L 9.566406 160.804688 L 9.527344 161.105469 L 9.496094 161.414062 L 9.480469 161.730469 L 9.46875 162.046875 L 9.46875 219.769531 L 275.578125 219.769531 L 275.660156 162.046875 L 275.648438 161.730469 L 275.632812 161.414062 L 275.601562 161.105469 L 275.5625 160.804688 L 275.503906 160.507812 L 275.4375 160.207031 L 275.359375 159.914062 L 275.269531 159.621094 L 275.164062 159.335938 L 275.058594 159.0625 L 274.933594 158.792969 L 274.804688 158.523438 L 274.660156 158.265625 L 274.503906 158.003906 L 274.351562 157.761719 L 274.179688 157.519531 L 274 157.28125 L 273.8125 157.054688 L 273.609375 156.835938 L 273.40625 156.625 L 273.195312 156.421875 L 272.976562 156.21875 L 272.75 156.03125 L 272.511719 155.855469 L 272.269531 155.683594 L 272.027344 155.53125 L 271.765625 155.375 L 271.503906 155.230469 L 271.238281 155.097656 L 270.96875 154.976562 L 270.691406 154.871094 L 270.410156 154.765625 L 270.117188 154.675781 L 269.824219 154.597656 L 269.523438 154.53125 L 269.222656 154.472656 L 268.921875 154.433594 L 268.613281 154.402344 L 268.296875 154.382812 L 267.980469 154.375 L 17.148438 154.375 Z M 103.5625 169.613281 L 104.625 169.777344 L 105.664062 170.003906 L 106.679688 170.296875 L 107.664062 170.644531 L 108.632812 171.050781 L 109.558594 171.515625 L 110.453125 172.027344 L 111.320312 172.585938 L 112.140625 173.203125 L 112.929688 173.859375 L 113.679688 174.566406 L 114.386719 175.3125 L 115.042969 176.101562 L 115.660156 176.921875 L 116.222656 177.789062 L 116.734375 178.683594 L 117.195312 179.609375 L 117.601562 180.574219 L 117.953125 181.558594 L 118.246094 182.570312 L 118.472656 183.609375 L 118.636719 184.675781 L 118.742188 185.753906 L 118.773438 186.851562 L 118.742188 187.945312 L 118.636719 189.027344 L 118.472656 190.089844 L 118.246094 191.128906 L 117.953125 192.144531 L 117.601562 193.125 L 117.195312 194.09375 L 116.734375 195.019531 L 116.222656 195.910156 L 115.660156 196.78125 L 115.042969 197.597656 L 114.386719 198.386719 L 113.679688 199.132812 L 112.929688 199.839844 L 112.140625 200.496094 L 111.320312 201.113281 L 110.453125 201.675781 L 109.558594 202.1875 L 108.632812 202.648438 L 107.664062 203.054688 L 106.679688 203.402344 L 105.664062 203.695312 L 104.625 203.921875 L 103.5625 204.085938 L 102.480469 204.191406 L 101.382812 204.222656 L 100.285156 204.191406 L 99.203125 204.085938 L 98.140625 203.921875 L 97.101562 203.695312 L 96.085938 203.402344 L 95.101562 203.054688 L 94.132812 202.648438 L 93.207031 202.1875 L 92.3125 201.675781 L 91.445312 201.113281 L 90.621094 200.496094 L 89.835938 199.839844 L 89.085938 199.132812 L 88.378906 198.386719 L 87.722656 197.597656 L 87.105469 196.78125 L 86.542969 195.910156 L 86.03125 195.019531 L 85.566406 194.09375 L 85.160156 193.125 L 84.8125 192.144531 L 84.519531 191.128906 L 84.292969 190.089844 L 84.128906 189.027344 L 84.023438 187.945312 L 83.992188 186.851562 L 84.023438 185.753906 L 84.128906 184.675781 L 84.292969 183.609375 L 84.519531 182.570312 L 84.8125 181.558594 L 85.160156 180.574219 L 85.566406 179.609375 L 86.03125 178.683594 L 86.542969 177.789062 L 87.105469 176.921875 L 87.722656 176.101562 L 88.378906 175.3125 L 89.085938 174.566406 L 89.835938 173.859375 L 90.621094 173.203125 L 91.445312 172.585938 L 92.3125 172.027344 L 93.207031 171.515625 L 94.132812 171.050781 L 95.101562 170.644531 L 96.085938 170.296875 L 97.101562 170.003906 L 98.140625 169.777344 L 99.203125 169.613281 L 100.285156 169.507812 L 101.382812 169.476562 L 102.480469 169.507812 Z M 50.289062 169.613281 L 51.355469 169.777344 L 52.394531 170.003906 L 53.410156 170.296875 L 54.394531 170.644531 L 55.363281 171.050781 L 56.289062 171.515625 L 57.183594 172.027344 L 58.050781 172.585938 L 58.871094 173.203125 L 59.660156 173.859375 L 60.40625 174.566406 L 61.113281 175.3125 L 61.773438 176.101562 L 62.390625 176.921875 L 62.953125 177.789062 L 63.464844 178.683594 L 63.925781 179.609375 L 64.332031 180.574219 L 64.683594 181.558594 L 64.976562 182.570312 L 65.203125 183.609375 L 65.367188 184.675781 L 65.472656 185.753906 L 65.503906 186.851562 L 65.472656 187.945312 L 65.367188 189.027344 L 65.203125 190.089844 L 64.976562 191.128906 L 64.683594 192.144531 L 64.332031 193.125 L 63.925781 194.09375 L 63.464844 195.019531 L 62.953125 195.910156 L 62.390625 196.78125 L 61.773438 197.597656 L 61.113281 198.386719 L 60.40625 199.132812 L 59.660156 199.839844 L 58.871094 200.496094 L 58.050781 201.113281 L 57.183594 201.675781 L 56.289062 202.1875 L 55.363281 202.648438 L 54.394531 203.054688 L 53.410156 203.402344 L 52.394531 203.695312 L 51.355469 203.921875 L 50.289062 204.085938 L 49.210938 204.191406 L 48.113281 204.222656 L 47.015625 204.191406 L 45.933594 204.085938 L 44.871094 203.921875 L 43.828125 203.695312 L 42.8125 203.402344 L 41.832031 203.054688 L 40.863281 202.648438 L 39.9375 202.1875 L 39.042969 201.675781 L 38.171875 201.113281 L 37.351562 200.496094 L 36.566406 199.839844 L 35.816406 199.132812 L 35.109375 198.386719 L 34.453125 197.597656 L 33.835938 196.78125 L 33.273438 195.910156 L 32.761719 195.019531 L 32.296875 194.09375 L 31.890625 193.125 L 31.542969 192.144531 L 31.25 191.128906 L 31.023438 190.089844 L 30.859375 189.027344 L 30.753906 187.945312 L 30.722656 186.851562 L 30.753906 185.753906 L 30.859375 184.675781 L 31.023438 183.609375 L 31.25 182.570312 L 31.542969 181.558594 L 31.890625 180.574219 L 32.296875 179.609375 L 32.761719 178.683594 L 33.273438 177.789062 L 33.835938 176.921875 L 34.453125 176.101562 L 35.109375 175.3125 L 35.816406 174.566406 L 36.566406 173.859375 L 37.351562 173.203125 L 38.171875 172.585938 L 39.042969 172.027344 L 39.9375 171.515625 L 40.863281 171.050781 L 41.832031 170.644531 L 42.8125 170.296875 L 43.828125 170.003906 L 44.871094 169.777344 L 45.933594 169.613281 L 47.015625 169.507812 L 48.113281 169.476562 L 49.210938 169.507812 Z M 156.953125 169.613281 L 158.015625 169.777344 L 159.058594 170.003906 L 160.074219 170.296875 L 161.054688 170.644531 L 162.023438 171.050781 L 162.949219 171.515625 L 163.84375 172.027344 L 164.714844 172.585938 L 165.535156 173.203125 L 166.324219 173.859375 L 167.070312 174.566406 L 167.777344 175.3125 L 168.433594 176.101562 L 169.054688 176.921875 L 169.613281 177.789062 L 170.125 178.683594 L 170.589844 179.609375 L 170.996094 180.574219 L 171.34375 181.558594 L 171.636719 182.570312 L 171.863281 183.609375 L 172.027344 184.675781 L 172.132812 185.753906 L 172.164062 186.851562 L 172.132812 187.945312 L 172.027344 189.027344 L 171.863281 190.089844 L 171.636719 191.128906 L 171.34375 192.144531 L 170.996094 193.125 L 170.589844 194.09375 L 170.125 195.019531 L 169.613281 195.910156 L 169.054688 196.78125 L 168.433594 197.597656 L 167.777344 198.386719 L 167.070312 199.132812 L 166.324219 199.839844 L 165.535156 200.496094 L 164.714844 201.113281 L 163.84375 201.675781 L 162.949219 202.1875 L 162.023438 202.648438 L 161.054688 203.054688 L 160.074219 203.402344 L 159.058594 203.695312 L 158.015625 203.921875 L 156.953125 204.085938 L 155.871094 204.191406 L 154.773438 204.222656 L 153.675781 204.191406 L 152.597656 204.085938 L 151.53125 203.921875 L 150.492188 203.695312 L 149.476562 203.402344 L 148.492188 203.054688 L 147.527344 202.648438 L 146.597656 202.1875 L 145.707031 201.675781 L 144.835938 201.113281 L 144.015625 200.496094 L 143.226562 199.839844 L 142.480469 199.132812 L 141.773438 198.386719 L 141.113281 197.597656 L 140.496094 196.78125 L 139.933594 195.910156 L 139.421875 195.019531 L 138.960938 194.09375 L 138.554688 193.125 L 138.203125 192.144531 L 137.910156 191.128906 L 137.683594 190.089844 L 137.523438 189.027344 L 137.417969 187.945312 L 137.382812 186.851562 L 137.417969 185.753906 L 137.523438 184.675781 L 137.683594 183.609375 L 137.910156 182.570312 L 138.203125 181.558594 L 138.554688 180.574219 L 138.960938 179.609375 L 139.421875 178.683594 L 139.933594 177.789062 L 140.496094 176.921875 L 141.113281 176.101562 L 141.773438 175.3125 L 142.480469 174.566406 L 143.226562 173.859375 L 144.015625 173.203125 L 144.835938 172.585938 L 145.707031 172.027344 L 146.597656 171.515625 L 147.527344 171.050781 L 148.492188 170.644531 L 149.476562 170.296875 L 150.492188 170.003906 L 151.53125 169.777344 L 152.597656 169.613281 L 153.675781 169.507812 L 154.773438 169.476562 L 155.871094 169.507812 Z M 318.949219 132.820312 L 318.917969 134.203125 L 318.867188 135.582031 L 318.820312 136.953125 L 318.753906 138.335938 L 318.679688 139.714844 L 318.597656 141.085938 L 318.511719 142.457031 L 318.414062 143.839844 L 318.308594 145.210938 L 318.183594 146.582031 L 318.0625 147.953125 L 317.925781 149.328125 L 317.777344 150.699219 L 317.625 152.0625 L 317.460938 153.433594 L 317.289062 154.796875 L 317.113281 156.164062 L 316.925781 157.527344 L 316.722656 158.890625 L 316.519531 160.246094 L 316.300781 161.609375 L 316.070312 162.964844 L 315.835938 164.320312 L 315.59375 165.675781 L 315.339844 167.035156 L 315.074219 168.390625 L 314.804688 169.738281 L 314.527344 171.085938 L 314.234375 172.433594 L 313.933594 173.78125 L 313.625 175.121094 L 313.308594 176.457031 L 312.984375 177.796875 L 312.652344 179.136719 L 312.308594 180.476562 L 311.960938 181.808594 L 311.59375 183.140625 L 311.230469 184.472656 L 310.847656 185.796875 L 311.625 186.054688 L 312.40625 186.324219 L 313.1875 186.597656 L 313.960938 186.875 L 314.730469 187.160156 L 315.503906 187.441406 L 316.273438 187.734375 L 317.039062 188.027344 L 317.8125 188.328125 L 318.574219 188.636719 L 319.339844 188.945312 L 320.09375 189.261719 L 320.859375 189.578125 L 321.613281 189.902344 L 322.363281 190.226562 L 323.117188 190.5625 L 323.867188 190.902344 L 325.359375 191.582031 L 326.109375 191.941406 L 326.847656 192.289062 L 327.585938 192.65625 L 328.328125 193.011719 L 329.058594 193.386719 L 329.796875 193.757812 L 330.519531 194.132812 L 331.253906 194.515625 L 331.976562 194.902344 L 332.707031 195.292969 L 333.421875 195.691406 L 334.144531 196.089844 L 335.574219 196.902344 L 336.292969 197.316406 L 337 197.730469 L 338.414062 198.574219 L 339.109375 199.003906 L 340.507812 199.878906 L 341.648438 198.402344 L 342.75 196.902344 L 343.839844 195.390625 L 344.90625 193.863281 L 345.9375 192.324219 L 346.945312 190.761719 L 347.9375 189.195312 L 348.894531 187.613281 L 349.828125 186.015625 L 350.738281 184.398438 L 351.617188 182.773438 L 352.480469 181.136719 L 353.308594 179.488281 L 354.113281 177.832031 L 354.894531 176.160156 L 355.640625 174.46875 L 356.371094 172.773438 L 357.070312 171.066406 L 357.746094 169.347656 L 358.386719 167.625 L 359.003906 165.886719 L 359.597656 164.144531 L 360.167969 162.382812 L 360.703125 160.621094 L 361.207031 158.851562 L 361.695312 157.0625 L 362.148438 155.277344 L 362.574219 153.484375 L 362.980469 151.671875 L 363.34375 149.863281 L 363.695312 148.042969 L 364.003906 146.226562 L 364.296875 144.390625 L 364.546875 142.554688 L 364.78125 140.714844 L 364.976562 138.871094 L 365.15625 137.019531 L 365.296875 135.167969 L 365.410156 133.300781 L 365.5 131.441406 L 318.972656 131.441406 Z M 45.992188 177.839844 L 44.992188 178.132812 L 44.042969 178.539062 L 43.148438 179.03125 L 42.316406 179.625 L 41.5625 180.308594 L 40.878906 181.0625 L 40.285156 181.890625 L 39.789062 182.78125 L 39.382812 183.734375 L 39.09375 184.730469 L 38.914062 185.769531 L 38.847656 186.851562 L 38.914062 187.929688 L 39.09375 188.96875 L 39.382812 189.96875 L 39.789062 190.917969 L 40.285156 191.8125 L 40.878906 192.640625 L 41.5625 193.394531 L 42.316406 194.074219 L 43.148438 194.667969 L 44.042969 195.164062 L 44.992188 195.570312 L 45.992188 195.863281 L 47.03125 196.039062 L 48.113281 196.105469 L 49.195312 196.039062 L 50.234375 195.855469 L 51.234375 195.554688 L 52.175781 195.15625 L 53.070312 194.652344 L 53.898438 194.058594 L 54.65625 193.386719 L 55.328125 192.632812 L 55.921875 191.804688 L 56.425781 190.910156 L 56.824219 189.96875 L 57.125 188.96875 L 57.3125 187.929688 L 57.378906 186.851562 L 57.3125 185.769531 L 57.132812 184.730469 L 56.839844 183.734375 L 56.433594 182.78125 L 55.9375 181.890625 L 55.34375 181.0625 L 54.664062 180.308594 L 53.90625 179.625 L 53.078125 179.03125 L 52.183594 178.539062 L 51.234375 178.132812 L 50.234375 177.839844 L 49.195312 177.660156 L 48.113281 177.59375 L 47.03125 177.660156 Z M 99.261719 177.839844 L 98.261719 178.132812 L 97.3125 178.539062 L 96.417969 179.03125 L 95.589844 179.625 L 94.832031 180.308594 L 94.148438 181.0625 L 93.558594 181.890625 L 93.0625 182.78125 L 92.65625 183.734375 L 92.363281 184.730469 L 92.183594 185.769531 L 92.117188 186.851562 L 92.183594 187.929688 L 92.363281 188.96875 L 92.65625 189.96875 L 93.0625 190.917969 L 93.558594 191.8125 L 94.148438 192.640625 L 94.832031 193.394531 L 95.589844 194.074219 L 96.417969 194.667969 L 97.3125 195.164062 L 98.261719 195.570312 L 99.261719 195.863281 L 100.300781 196.039062 L 101.382812 196.105469 L 102.464844 196.039062 L 103.503906 195.863281 L 104.503906 195.570312 L 105.453125 195.164062 L 106.347656 194.667969 L 107.175781 194.074219 L 107.933594 193.394531 L 108.617188 192.640625 L 109.207031 191.8125 L 109.703125 190.917969 L 110.109375 189.96875 L 110.402344 188.96875 L 110.582031 187.929688 L 110.648438 186.851562 L 110.582031 185.769531 L 110.402344 184.730469 L 110.109375 183.734375 L 109.703125 182.78125 L 109.207031 181.890625 L 108.617188 181.0625 L 107.933594 180.308594 L 107.175781 179.625 L 106.347656 179.03125 L 105.453125 178.539062 L 104.503906 178.132812 L 103.503906 177.839844 L 102.464844 177.660156 L 101.382812 177.59375 L 100.300781 177.660156 Z M 152.652344 177.839844 L 151.652344 178.132812 L 150.703125 178.539062 L 149.808594 179.03125 L 148.980469 179.625 L 148.222656 180.308594 L 147.542969 181.0625 L 146.949219 181.890625 L 146.453125 182.78125 L 146.046875 183.734375 L 145.753906 184.730469 L 145.574219 185.769531 L 145.511719 186.851562 L 145.574219 187.929688 L 145.753906 188.96875 L 146.046875 189.96875 L 146.453125 190.917969 L 146.949219 191.8125 L 147.542969 192.640625 L 148.222656 193.394531 L 148.980469 194.074219 L 149.808594 194.667969 L 150.703125 195.164062 L 151.652344 195.570312 L 152.652344 195.863281 L 153.695312 196.039062 L 154.773438 196.105469 L 155.855469 196.039062 L 156.894531 195.863281 L 157.894531 195.570312 L 158.847656 195.164062 L 159.738281 194.667969 L 160.570312 194.074219 L 161.324219 193.394531 L 162.007812 192.640625 L 162.601562 191.8125 L 163.097656 190.917969 L 163.503906 189.96875 L 163.796875 188.96875 L 163.972656 187.929688 L 164.039062 186.851562 L 163.972656 185.769531 L 163.796875 184.730469 L 163.503906 183.734375 L 163.097656 182.78125 L 162.601562 181.890625 L 162.007812 181.0625 L 161.324219 180.308594 L 160.570312 179.625 L 159.738281 179.03125 L 158.847656 178.539062 L 157.894531 178.132812 L 156.894531 177.839844 L 155.855469 177.660156 L 154.773438 177.59375 L 153.695312 177.660156 Z M 251.035156 146.257812 L 267.980469 146.257812 L 268.628906 146.273438 L 269.269531 146.316406 L 269.90625 146.386719 L 270.53125 146.476562 L 271.148438 146.589844 L 271.765625 146.738281 L 272.359375 146.898438 L 272.953125 147.085938 L 273.539062 147.289062 L 274.105469 147.523438 L 274.667969 147.777344 L 275.210938 148.042969 L 275.746094 148.335938 L 276.269531 148.652344 L 276.78125 148.984375 L 277.265625 149.335938 L 277.753906 149.699219 L 278.21875 150.089844 L 278.664062 150.488281 L 279.105469 150.910156 L 279.519531 151.347656 L 279.925781 151.804688 L 280.308594 152.265625 L 280.671875 152.753906 L 281.023438 153.25 L 281.347656 153.75 L 281.664062 154.277344 L 281.949219 154.816406 L 282.222656 155.359375 L 282.46875 155.917969 L 282.695312 156.496094 L 282.90625 157.070312 L 283.085938 157.664062 L 283.25 158.265625 L 283.386719 158.875 L 283.5 159.5 L 283.589844 160.125 L 283.65625 160.757812 L 283.6875 161.398438 L 283.703125 162.046875 L 283.703125 178.609375 L 284.191406 178.699219 L 284.6875 178.78125 L 285.175781 178.871094 L 285.671875 178.96875 L 286.15625 179.058594 L 286.644531 179.144531 L 287.140625 179.242188 L 288.605469 179.535156 L 289.089844 179.632812 L 289.578125 179.738281 L 290.066406 179.835938 L 291.53125 180.152344 L 292.015625 180.265625 L 292.503906 180.371094 L 292.992188 180.484375 L 293.480469 180.589844 L 293.960938 180.703125 L 294.445312 180.828125 L 294.933594 180.941406 L 295.414062 181.054688 L 296.390625 181.296875 L 296.867188 181.417969 L 297.355469 181.542969 L 297.835938 181.664062 L 298.316406 181.792969 L 298.804688 181.914062 L 299.28125 182.042969 L 299.761719 182.175781 L 300.25 182.304688 L 300.730469 182.433594 L 301.207031 182.570312 L 301.6875 182.703125 L 302.648438 182.976562 L 303.125 183.117188 L 303.484375 181.847656 L 303.832031 180.582031 L 304.175781 179.308594 L 304.507812 178.035156 L 304.832031 176.757812 L 305.140625 175.484375 L 305.449219 174.203125 L 305.75 172.925781 L 306.042969 171.644531 L 306.320312 170.355469 L 306.597656 169.070312 L 306.855469 167.78125 L 307.117188 166.496094 L 307.359375 165.207031 L 307.605469 163.914062 L 307.832031 162.617188 L 308.050781 161.324219 L 308.261719 160.027344 L 308.464844 158.726562 L 308.660156 157.429688 L 308.855469 156.128906 L 309.027344 154.832031 L 309.195312 153.523438 L 309.359375 152.226562 L 309.515625 150.917969 L 309.660156 149.609375 L 309.789062 148.304688 L 309.921875 146.996094 L 310.042969 145.691406 L 310.148438 144.375 L 310.246094 143.066406 L 310.34375 141.753906 L 310.425781 140.445312 L 310.496094 139.128906 L 310.5625 137.816406 L 310.617188 136.5 L 310.667969 135.183594 L 310.707031 133.871094 L 310.742188 132.554688 L 310.765625 131.238281 L 251.035156 131.238281 Z M 183.226562 131.660156 L 183.242188 132.074219 L 183.25 132.496094 L 183.265625 132.910156 L 183.273438 133.332031 L 183.289062 133.753906 L 183.308594 134.167969 L 183.316406 134.59375 L 183.332031 135.007812 L 183.347656 135.429688 L 183.363281 135.84375 L 183.378906 136.265625 L 183.40625 136.679688 L 183.421875 137.09375 L 183.4375 137.515625 L 183.460938 137.929688 L 183.476562 138.351562 L 183.503906 138.765625 L 183.527344 139.179688 L 183.550781 139.601562 L 183.574219 140.015625 L 183.601562 140.429688 L 183.625 140.851562 L 183.671875 141.679688 L 183.707031 142.09375 L 183.730469 142.515625 L 183.792969 143.34375 L 183.828125 143.757812 L 183.859375 144.179688 L 183.890625 144.59375 L 183.925781 145.007812 L 183.957031 145.421875 L 183.988281 145.84375 L 184.03125 146.257812 L 242.90625 146.257812 L 242.90625 131.238281 L 183.21875 131.238281 Z M 128.664062 131.742188 L 128.710938 132.75 L 128.738281 133.253906 L 128.761719 133.753906 L 128.792969 134.257812 L 128.828125 134.753906 L 128.890625 135.761719 L 128.933594 136.265625 L 128.972656 136.769531 L 129.011719 137.269531 L 129.054688 137.765625 L 129.101562 138.269531 L 129.152344 138.773438 L 129.199219 139.269531 L 129.25 139.773438 L 129.304688 140.273438 L 129.363281 140.769531 L 129.417969 141.273438 L 129.476562 141.769531 L 129.542969 142.273438 L 129.605469 142.765625 L 129.671875 143.269531 L 129.738281 143.765625 L 129.808594 144.269531 L 129.882812 144.765625 L 129.957031 145.257812 L 130.027344 145.761719 L 130.109375 146.257812 L 175.863281 146.257812 L 175.824219 145.753906 L 175.78125 145.257812 L 175.742188 144.757812 L 175.699219 144.261719 L 175.667969 143.757812 L 175.628906 143.261719 L 175.585938 142.757812 L 175.554688 142.265625 L 175.515625 141.761719 L 175.480469 141.265625 L 175.449219 140.761719 L 175.417969 140.265625 L 175.382812 139.761719 L 175.351562 139.261719 L 175.328125 138.765625 L 175.292969 138.261719 L 175.269531 137.765625 L 175.222656 136.757812 L 175.203125 136.265625 L 175.179688 135.761719 L 175.132812 134.25 L 175.125 133.753906 L 175.109375 133.253906 L 175.097656 132.75 L 175.097656 132.246094 L 175.089844 131.742188 L 175.089844 131.238281 L 128.648438 131.238281 Z M 300.574219 72.023438 L 299.296875 72.363281 L 298.023438 72.695312 L 296.738281 73.011719 L 295.464844 73.328125 L 294.171875 73.628906 L 292.886719 73.929688 L 291.601562 74.214844 L 290.3125 74.5 L 289.019531 74.765625 L 287.726562 75.027344 L 286.433594 75.285156 L 285.132812 75.53125 L 283.839844 75.765625 L 282.542969 75.992188 L 281.242188 76.210938 L 279.933594 76.421875 L 278.632812 76.625 L 277.332031 76.820312 L 276.023438 77.007812 L 274.714844 77.1875 L 273.40625 77.355469 L 272.097656 77.511719 L 270.789062 77.664062 L 269.472656 77.8125 L 268.164062 77.941406 L 266.847656 78.070312 L 265.539062 78.183594 L 264.222656 78.296875 L 261.589844 78.492188 L 260.273438 78.574219 L 258.957031 78.648438 L 257.632812 78.710938 L 256.316406 78.769531 L 255 78.816406 L 253.675781 78.859375 L 252.359375 78.890625 L 251.035156 78.914062 L 251.035156 123.160156 L 310.765625 123.160156 L 310.742188 121.847656 L 310.707031 120.53125 L 310.667969 119.214844 L 310.617188 117.898438 L 310.5625 116.59375 L 310.496094 115.277344 L 310.425781 113.960938 L 310.34375 112.65625 L 310.246094 111.339844 L 310.148438 110.035156 L 310.042969 108.726562 L 309.921875 107.417969 L 309.789062 106.113281 L 309.660156 104.804688 L 309.515625 103.5 L 309.359375 102.191406 L 309.195312 100.890625 L 309.035156 99.59375 L 308.855469 98.285156 L 308.667969 96.988281 L 308.472656 95.6875 L 308.261719 94.398438 L 308.050781 93.097656 L 307.832031 91.808594 L 307.605469 90.515625 L 307.359375 89.21875 L 307.117188 87.933594 L 306.855469 86.644531 L 306.597656 85.363281 L 306.320312 84.070312 L 306.042969 82.789062 L 305.75 81.503906 L 305.449219 80.230469 L 305.148438 78.949219 L 304.832031 77.671875 L 304.507812 76.398438 L 304.175781 75.132812 L 303.832031 73.859375 L 303.484375 72.589844 L 303.125 71.324219 L 301.851562 71.683594 Z M 190.078125 73.816406 L 189.734375 75.089844 L 189.410156 76.367188 L 189.085938 77.632812 L 188.777344 78.914062 L 188.476562 80.191406 L 188.175781 81.472656 L 187.890625 82.753906 L 187.613281 84.039062 L 187.339844 85.320312 L 187.078125 86.613281 L 186.824219 87.894531 L 186.582031 89.183594 L 186.347656 90.476562 L 186.117188 91.765625 L 185.898438 93.066406 L 185.6875 94.355469 L 185.484375 95.65625 L 185.289062 96.953125 L 185.101562 98.253906 L 184.933594 99.550781 L 184.761719 100.859375 L 184.597656 102.160156 L 184.453125 103.464844 L 184.308594 104.765625 L 184.175781 106.070312 L 184.046875 107.378906 L 183.933594 108.6875 L 183.828125 109.992188 L 183.730469 111.308594 L 183.632812 112.613281 L 183.550781 113.929688 L 183.476562 115.238281 L 183.414062 116.550781 L 183.355469 117.859375 L 183.308594 119.175781 L 183.265625 120.488281 L 183.21875 123.121094 L 242.828125 123.121094 L 242.828125 78.875 L 241.511719 78.851562 L 240.183594 78.816406 L 238.867188 78.777344 L 237.542969 78.730469 L 236.226562 78.671875 L 234.910156 78.605469 L 233.59375 78.535156 L 230.960938 78.355469 L 229.644531 78.257812 L 228.335938 78.144531 L 227.019531 78.03125 L 225.710938 77.902344 L 224.394531 77.769531 L 223.085938 77.625 L 221.777344 77.46875 L 220.46875 77.308594 L 219.160156 77.144531 L 217.855469 76.96875 L 216.554688 76.78125 L 215.253906 76.585938 L 213.945312 76.382812 L 212.644531 76.171875 L 211.34375 75.953125 L 210.050781 75.726562 L 208.75 75.488281 L 207.460938 75.238281 L 206.167969 74.984375 L 204.875 74.726562 L 203.582031 74.449219 L 202.292969 74.175781 L 201.007812 73.890625 L 198.4375 73.289062 L 197.15625 72.972656 L 195.878906 72.65625 L 194.59375 72.324219 L 193.320312 71.980469 L 192.050781 71.640625 L 190.777344 71.285156 L 190.417969 72.550781 Z M 151.125 57.742188 L 150.054688 59.253906 L 148.996094 60.785156 L 147.972656 62.328125 L 146.972656 63.878906 L 145.988281 65.453125 L 145.039062 67.039062 L 144.121094 68.636719 L 143.21875 70.246094 L 142.339844 71.867188 L 141.496094 73.507812 L 140.675781 75.15625 L 139.871094 76.8125 L 139.105469 78.484375 L 138.359375 80.171875 L 137.644531 81.863281 L 136.953125 83.566406 L 136.285156 85.289062 L 135.644531 87.007812 L 135.035156 88.746094 L 134.449219 90.492188 L 133.890625 92.246094 L 133.359375 94.007812 L 132.855469 95.777344 L 132.378906 97.554688 L 131.929688 99.339844 L 131.507812 101.128906 L 131.117188 102.929688 L 130.753906 104.742188 L 130.410156 106.550781 L 130.101562 108.378906 L 129.824219 110.195312 L 129.566406 112.03125 L 129.347656 113.867188 L 129.144531 115.707031 L 128.980469 117.558594 L 128.84375 119.410156 L 128.730469 121.261719 L 128.648438 123.121094 L 174.96875 123.121094 L 174.992188 121.742188 L 175.035156 120.359375 L 175.074219 118.988281 L 175.132812 117.609375 L 175.195312 116.234375 L 175.269531 114.855469 L 175.351562 113.484375 L 175.441406 112.113281 L 175.539062 110.730469 L 175.765625 107.988281 L 175.894531 106.625 L 176.027344 105.25 L 176.171875 103.878906 L 176.328125 102.515625 L 176.488281 101.152344 L 176.660156 99.78125 L 176.847656 98.414062 L 177.035156 97.058594 L 177.441406 94.332031 L 177.660156 92.976562 L 177.886719 91.621094 L 178.121094 90.265625 L 178.367188 88.910156 L 178.617188 87.554688 L 178.878906 86.207031 L 179.144531 84.859375 L 179.714844 82.164062 L 180.015625 80.816406 L 180.324219 79.476562 L 180.957031 76.796875 L 181.292969 75.457031 L 181.640625 74.125 L 181.992188 72.792969 L 182.347656 71.460938 L 182.722656 70.132812 L 183.097656 68.808594 L 182.316406 68.546875 L 181.535156 68.28125 L 180.753906 68.011719 L 179.976562 67.734375 L 179.195312 67.453125 L 178.421875 67.167969 L 177.652344 66.875 L 176.878906 66.582031 L 176.113281 66.28125 L 175.351562 65.984375 L 174.585938 65.675781 L 173.824219 65.367188 L 173.058594 65.039062 L 172.304688 64.722656 L 171.546875 64.398438 L 170.792969 64.066406 L 170.035156 63.726562 L 169.289062 63.386719 L 168.542969 63.042969 L 167.792969 62.695312 L 167.054688 62.335938 L 166.304688 61.980469 L 165.566406 61.613281 L 164.835938 61.25 L 164.097656 60.875 L 163.363281 60.503906 L 162.632812 60.121094 L 161.902344 59.730469 L 161.179688 59.339844 L 160.457031 58.953125 L 159.730469 58.554688 L 158.300781 57.742188 L 156.871094 56.914062 L 156.164062 56.492188 L 154.75 55.632812 L 154.050781 55.203125 L 153.351562 54.761719 L 152.222656 56.25 Z M 339.101562 55.632812 L 338.402344 56.0625 L 337.695312 56.484375 L 336.980469 56.90625 L 336.273438 57.320312 L 335.558594 57.734375 L 334.84375 58.140625 L 334.121094 58.546875 L 333.398438 58.945312 L 332.675781 59.332031 L 331.953125 59.722656 L 331.21875 60.113281 L 330.488281 60.488281 L 329.757812 60.867188 L 329.027344 61.242188 L 328.285156 61.605469 L 327.546875 61.972656 L 326.808594 62.328125 L 326.058594 62.679688 L 325.3125 63.027344 L 324.5625 63.375 L 323.816406 63.71875 L 323.0625 64.050781 L 322.3125 64.382812 L 321.558594 64.707031 L 320.792969 65.03125 L 320.039062 65.347656 L 319.273438 65.667969 L 318.511719 65.972656 L 317.746094 66.273438 L 316.972656 66.574219 L 316.203125 66.875 L 315.429688 67.160156 L 314.65625 67.453125 L 313.886719 67.726562 L 312.324219 68.28125 L 311.546875 68.546875 L 310.765625 68.808594 L 311.140625 70.132812 L 311.511719 71.460938 L 311.871094 72.792969 L 312.21875 74.125 L 312.570312 75.457031 L 312.902344 76.796875 L 313.535156 79.476562 L 313.84375 80.816406 L 314.144531 82.164062 L 314.714844 84.859375 L 314.984375 86.207031 L 315.242188 87.554688 L 315.496094 88.910156 L 315.738281 90.265625 L 315.972656 91.621094 L 316.203125 92.976562 L 316.421875 94.332031 L 316.828125 97.058594 L 317.015625 98.414062 L 317.203125 99.78125 L 317.371094 101.152344 L 317.535156 102.515625 L 317.6875 103.878906 L 317.835938 105.25 L 317.964844 106.625 L 318.09375 107.988281 L 318.210938 109.359375 L 318.324219 110.730469 L 318.421875 112.113281 L 318.511719 113.484375 L 318.589844 114.855469 L 318.664062 116.234375 L 318.730469 117.609375 L 318.785156 118.988281 L 318.828125 120.359375 L 318.867188 121.742188 L 318.890625 123.121094 L 365.5 123.121094 L 365.410156 121.261719 L 365.296875 119.402344 L 365.148438 117.550781 L 364.96875 115.699219 L 364.765625 113.855469 L 364.539062 112.023438 L 364.277344 110.1875 L 363.996094 108.359375 L 363.679688 106.535156 L 363.328125 104.722656 L 362.953125 102.914062 L 362.554688 101.109375 L 362.125 99.316406 L 361.671875 97.53125 L 361.191406 95.753906 L 360.679688 93.984375 L 360.144531 92.222656 L 359.574219 90.46875 L 358.980469 88.722656 L 358.363281 86.984375 L 357.722656 85.265625 L 357.046875 83.542969 L 356.347656 81.839844 L 355.625 80.148438 L 354.867188 78.460938 L 354.097656 76.796875 L 353.292969 75.132812 L 352.453125 73.484375 L 351.601562 71.851562 L 350.722656 70.230469 L 349.8125 68.621094 L 348.878906 67.023438 L 347.921875 65.4375 L 346.9375 63.871094 L 345.929688 62.3125 L 344.898438 60.769531 L 343.832031 59.246094 L 342.75 57.734375 L 341.636719 56.242188 L 340.507812 54.761719 L 339.808594 55.203125 Z M 252.292969 70.617188 L 253.546875 70.585938 L 254.804688 70.554688 L 256.066406 70.503906 L 257.316406 70.457031 L 258.574219 70.390625 L 259.828125 70.324219 L 261.078125 70.253906 L 262.339844 70.164062 L 263.589844 70.074219 L 264.839844 69.976562 L 266.09375 69.863281 L 267.34375 69.75 L 268.589844 69.628906 L 269.839844 69.488281 L 271.082031 69.351562 L 272.335938 69.207031 L 273.578125 69.050781 L 274.820312 68.890625 L 276.066406 68.710938 L 277.308594 68.53125 L 278.550781 68.34375 L 279.785156 68.148438 L 281.03125 67.949219 L 282.265625 67.734375 L 283.5 67.515625 L 284.734375 67.289062 L 285.972656 67.054688 L 287.207031 66.8125 L 288.433594 66.558594 L 289.660156 66.300781 L 290.886719 66.03125 L 292.113281 65.753906 L 293.34375 65.472656 L 294.5625 65.1875 L 295.78125 64.886719 L 297 64.578125 L 299.4375 63.945312 L 300.648438 63.613281 L 299.8125 61.257812 L 298.949219 58.953125 L 298.054688 56.6875 L 297.136719 54.472656 L 296.1875 52.296875 L 295.21875 50.160156 L 294.21875 48.074219 L 293.195312 46.035156 L 292.15625 44.046875 L 291.082031 42.097656 L 289.992188 40.207031 L 288.878906 38.363281 L 287.742188 36.5625 L 286.589844 34.816406 L 285.410156 33.117188 L 284.214844 31.480469 L 282.996094 29.878906 L 281.761719 28.34375 L 280.511719 26.859375 L 279.242188 25.421875 L 277.949219 24.050781 L 276.648438 22.726562 L 275.324219 21.460938 L 273.992188 20.25 L 272.644531 19.097656 L 271.277344 18.003906 L 269.90625 16.964844 L 268.515625 15.988281 L 267.109375 15.070312 L 265.695312 14.210938 L 264.273438 13.414062 L 262.835938 12.683594 L 261.386719 12.011719 L 259.933594 11.402344 L 258.46875 10.851562 L 256.992188 10.371094 L 255.511719 9.957031 L 254.023438 9.601562 L 252.539062 9.316406 L 251.035156 9.097656 L 251.035156 70.632812 Z M 239.917969 9.601562 L 238.4375 9.949219 L 236.960938 10.363281 L 235.488281 10.84375 L 234.027344 11.386719 L 232.570312 11.996094 L 231.132812 12.667969 L 229.695312 13.398438 L 228.273438 14.195312 L 226.859375 15.046875 L 225.460938 15.964844 L 224.070312 16.945312 L 222.6875 17.976562 L 221.332031 19.074219 L 219.984375 20.226562 L 218.648438 21.4375 L 217.324219 22.703125 L 216.023438 24.027344 L 214.742188 25.40625 L 213.464844 26.835938 L 212.214844 28.320312 L 210.988281 29.863281 L 209.765625 31.453125 L 208.574219 33.101562 L 207.394531 34.792969 L 206.242188 36.546875 L 205.101562 38.339844 L 203.988281 40.183594 L 202.902344 42.082031 L 201.828125 44.023438 L 200.789062 46.011719 L 199.761719 48.050781 L 198.765625 50.136719 L 197.796875 52.261719 L 196.847656 54.4375 L 195.929688 56.65625 L 195.035156 58.917969 L 194.171875 61.226562 L 193.335938 63.570312 L 194.546875 63.90625 L 195.765625 64.222656 L 196.976562 64.539062 L 198.195312 64.847656 L 199.414062 65.136719 L 200.640625 65.429688 L 201.859375 65.714844 L 203.085938 65.992188 L 204.316406 66.257812 L 205.542969 66.519531 L 206.769531 66.769531 L 208.003906 67.015625 L 209.230469 67.242188 L 210.464844 67.476562 L 211.703125 67.695312 L 212.9375 67.90625 L 214.171875 68.109375 L 215.414062 68.304688 L 216.660156 68.492188 L 217.894531 68.667969 L 219.136719 68.839844 L 220.382812 69.003906 L 221.625 69.164062 L 222.875 69.3125 L 224.121094 69.449219 L 225.363281 69.578125 L 226.613281 69.710938 L 227.867188 69.824219 L 230.367188 70.035156 L 231.621094 70.125 L 232.871094 70.210938 L 234.125 70.285156 L 235.375 70.351562 L 236.625 70.414062 L 237.886719 70.464844 L 239.136719 70.511719 L 240.398438 70.546875 L 241.648438 70.578125 L 242.90625 70.59375 L 242.90625 9.097656 L 241.414062 9.316406 Z M 211.457031 14.25 L 208.207031 15.308594 L 205.527344 16.320312 L 202.355469 17.5 L 199.714844 18.636719 L 196.625 20.015625 L 194.027344 21.273438 L 191.058594 22.816406 L 188.539062 24.195312 L 185.613281 25.902344 L 183.175781 27.445312 L 180.332031 29.3125 L 177.976562 30.933594 L 175.253906 32.964844 L 172.976562 34.75 L 170.335938 36.902344 L 168.144531 38.808594 L 165.664062 41.125 L 165.609375 41.171875 L 165.550781 41.230469 L 165.492188 41.277344 L 165.4375 41.328125 L 165.378906 41.375 L 165.332031 41.433594 L 165.273438 41.480469 L 165.21875 41.53125 L 165.167969 41.578125 L 165.113281 41.636719 L 165.0625 41.683594 L 165.007812 41.734375 L 164.957031 41.78125 L 164.902344 41.839844 L 164.851562 41.886719 L 164.792969 41.9375 L 164.746094 41.992188 L 164.6875 42.042969 L 164.316406 42.414062 L 164.257812 42.464844 L 164.210938 42.519531 L 164.097656 42.632812 L 164.039062 42.683594 L 163.980469 42.738281 L 163.917969 42.796875 L 163.859375 42.851562 L 163.804688 42.917969 L 163.738281 42.976562 L 163.679688 43.03125 L 163.617188 43.097656 L 163.550781 43.152344 L 163.488281 43.21875 L 163.421875 43.273438 L 163.355469 43.339844 L 163.292969 43.398438 L 163.234375 43.460938 L 163.167969 43.527344 L 163.105469 43.582031 L 162.84375 43.84375 L 162.78125 43.910156 L 162.722656 43.964844 L 162.398438 44.289062 L 162.339844 44.355469 L 162.277344 44.421875 L 162.210938 44.484375 L 162.144531 44.550781 L 162.089844 44.613281 L 161.894531 44.808594 L 161.835938 44.875 L 161.773438 44.941406 L 161.707031 45.003906 L 161.648438 45.070312 L 161.519531 45.199219 L 161.460938 45.265625 L 161.398438 45.328125 L 161.339844 45.394531 L 161.277344 45.460938 L 161.21875 45.523438 L 161.152344 45.589844 L 159.164062 47.742188 L 158.472656 48.511719 L 159.148438 48.925781 L 159.820312 49.332031 L 160.503906 49.730469 L 161.179688 50.128906 L 161.859375 50.523438 L 162.550781 50.914062 L 163.234375 51.296875 L 163.925781 51.679688 L 164.617188 52.058594 L 165.316406 52.425781 L 166.003906 52.796875 L 166.703125 53.164062 L 167.410156 53.519531 L 168.109375 53.878906 L 168.816406 54.226562 L 169.523438 54.578125 L 170.230469 54.917969 L 170.945312 55.257812 L 171.660156 55.589844 L 172.375 55.914062 L 173.09375 56.242188 L 173.808594 56.566406 L 174.53125 56.882812 L 175.976562 57.5 L 176.707031 57.808594 L 177.441406 58.101562 L 178.171875 58.398438 L 178.902344 58.683594 L 179.632812 58.976562 L 180.375 59.253906 L 181.113281 59.527344 L 181.851562 59.804688 L 182.59375 60.074219 L 183.332031 60.332031 L 184.078125 60.59375 L 184.828125 60.84375 L 185.574219 61.09375 L 186.160156 59.421875 L 186.761719 57.773438 L 187.378906 56.152344 L 188.003906 54.535156 L 188.644531 52.953125 L 189.296875 51.386719 L 189.964844 49.835938 L 190.636719 48.308594 L 191.328125 46.808594 L 192.027344 45.320312 L 192.742188 43.859375 L 193.464844 42.421875 L 194.195312 41.003906 L 194.945312 39.605469 L 195.699219 38.234375 L 196.472656 36.878906 L 197.246094 35.546875 L 198.039062 34.238281 L 198.835938 32.957031 L 199.640625 31.691406 L 200.460938 30.457031 L 201.292969 29.238281 L 202.128906 28.046875 L 202.980469 26.875 L 203.835938 25.722656 L 204.703125 24.601562 L 205.574219 23.507812 L 206.460938 22.425781 L 207.355469 21.378906 L 208.246094 20.355469 L 209.15625 19.351562 L 210.078125 18.375 L 210.996094 17.417969 L 211.929688 16.492188 L 212.863281 15.589844 L 213.816406 14.714844 L 214.765625 13.863281 L 215.722656 13.035156 L 214.179688 13.441406 Z M 280.183594 14.820312 L 281.144531 15.6875 L 282.085938 16.582031 L 283.019531 17.5 L 283.949219 18.449219 L 284.867188 19.414062 L 285.785156 20.414062 L 286.6875 21.4375 L 287.578125 22.476562 L 288.464844 23.546875 L 289.34375 24.644531 L 290.203125 25.765625 L 291.066406 26.898438 L 291.917969 28.070312 L 292.757812 29.261719 L 293.585938 30.472656 L 294.40625 31.707031 L 295.21875 32.972656 L 296.015625 34.253906 L 296.8125 35.554688 L 297.59375 36.886719 L 298.363281 38.242188 L 299.121094 39.613281 L 299.875 41.011719 L 300.605469 42.421875 L 301.339844 43.867188 L 302.054688 45.328125 L 302.761719 46.808594 L 303.460938 48.308594 L 304.140625 49.835938 L 304.816406 51.386719 L 305.484375 52.953125 L 306.132812 54.535156 L 306.765625 56.152344 L 307.394531 57.773438 L 308.011719 59.421875 L 308.613281 61.09375 L 309.351562 60.84375 L 310.097656 60.59375 L 310.839844 60.332031 L 311.578125 60.0625 L 312.308594 59.796875 L 313.050781 59.527344 L 313.78125 59.253906 L 314.511719 58.96875 L 315.234375 58.683594 L 315.964844 58.390625 L 316.691406 58.101562 L 318.136719 57.5 L 318.859375 57.191406 L 321.003906 56.242188 L 321.71875 55.914062 L 323.132812 55.25 L 323.839844 54.910156 L 324.546875 54.566406 L 325.945312 53.871094 L 326.644531 53.511719 L 327.34375 53.15625 L 328.035156 52.789062 L 328.726562 52.425781 L 329.414062 52.050781 L 330.097656 51.679688 L 330.78125 51.296875 L 332.148438 50.515625 L 332.820312 50.128906 L 334.171875 49.332031 L 334.84375 48.925781 L 335.511719 48.511719 L 334.820312 47.742188 L 332.828125 45.589844 L 332.765625 45.523438 L 332.699219 45.460938 L 332.632812 45.394531 L 332.570312 45.328125 L 332.503906 45.265625 L 332.4375 45.199219 L 332.375 45.125 L 332.308594 45.0625 L 332.242188 44.996094 L 332.179688 44.929688 L 332.105469 44.859375 L 331.910156 44.664062 L 331.847656 44.589844 L 331.78125 44.527344 L 331.714844 44.460938 L 331.652344 44.394531 L 331.585938 44.324219 L 331.457031 44.191406 L 331.390625 44.128906 L 331.324219 44.0625 L 331.261719 43.996094 L 331.203125 43.933594 L 331.140625 43.867188 L 331.074219 43.804688 L 331.015625 43.746094 L 330.953125 43.679688 L 330.894531 43.617188 L 330.828125 43.558594 L 330.773438 43.496094 L 330.601562 43.324219 L 330.546875 43.265625 L 330.488281 43.210938 L 330.433594 43.152344 L 330.375 43.097656 L 329.832031 42.554688 L 329.773438 42.503906 L 329.726562 42.445312 L 329.667969 42.390625 L 329.609375 42.339844 L 329.390625 42.121094 L 329.335938 42.074219 L 329.117188 41.855469 L 329.058594 41.804688 L 329 41.75 L 328.945312 41.699219 L 328.886719 41.644531 L 328.832031 41.59375 L 328.773438 41.539062 L 328.71875 41.488281 L 328.660156 41.433594 L 328.601562 41.382812 L 328.546875 41.328125 L 328.488281 41.277344 L 328.433594 41.230469 L 328.375 41.171875 L 328.320312 41.125 L 325.839844 38.808594 L 323.644531 36.902344 L 321.003906 34.75 L 318.730469 32.964844 L 316.007812 30.933594 L 313.648438 29.3125 L 310.804688 27.445312 L 308.367188 25.902344 L 305.484375 24.195312 L 302.964844 22.816406 L 299.957031 21.273438 L 297.355469 20.015625 L 294.269531 18.636719 L 291.667969 17.5 L 288.5 16.28125 L 285.816406 15.308594 L 282.566406 14.25 L 279.84375 13.441406 L 278.257812 13.15625 L 279.226562 13.976562 Z M 280.183594 14.820312 " clip-rule="nonzero"/></clipPath><linearGradient x1="251.17999" gradientTransform="matrix(0.812663, 0, 0, 0.811847, -16.453488, -15.25885)" y1="19.55" x2="251.17999" gradientUnits="userSpaceOnUse" y2="480.000008" id="id3"><stop stop-opacity="1" stop-color="rgb(17.298889%, 92.498779%, 100%)" offset="0"/><stop stop-opacity="1" stop-color="rgb(17.611694%, 92.3172%, 100%)" offset="0.00390625"/><stop stop-opacity="1" stop-color="rgb(17.926025%, 92.13562%, 100%)" offset="0.0078125"/><stop stop-opacity="1" stop-color="rgb(18.240356%, 91.952515%, 100%)" offset="0.0117188"/><stop stop-opacity="1" stop-color="rgb(18.554688%, 91.770935%, 100%)" offset="0.015625"/><stop stop-opacity="1" stop-color="rgb(18.867493%, 91.589355%, 100%)" offset="0.0195313"/><stop stop-opacity="1" stop-color="rgb(19.181824%, 91.407776%, 100%)" offset="0.0234375"/><stop stop-opacity="1" stop-color="rgb(19.494629%, 91.22467%, 100%)" offset="0.0273438"/><stop stop-opacity="1" stop-color="rgb(19.80896%, 91.043091%, 100%)" offset="0.03125"/><stop stop-opacity="1" stop-color="rgb(20.121765%, 90.859985%, 100%)" offset="0.0351562"/><stop stop-opacity="1" stop-color="rgb(20.436096%, 90.678406%, 100%)" offset="0.0390625"/><stop stop-opacity="1" stop-color="rgb(20.748901%, 90.496826%, 100%)" offset="0.0429688"/><stop stop-opacity="1" stop-color="rgb(21.063232%, 90.315247%, 100%)" offset="0.046875"/><stop stop-opacity="1" stop-color="rgb(21.376038%, 90.132141%, 100%)" offset="0.0507812"/><stop stop-opacity="1" stop-color="rgb(21.690369%, 89.950562%, 100%)" offset="0.0546875"/><stop stop-opacity="1" stop-color="rgb(22.003174%, 89.768982%, 100%)" offset="0.0585938"/><stop stop-opacity="1" stop-color="rgb(22.317505%, 89.587402%, 100%)" offset="0.0625"/><stop stop-opacity="1" stop-color="rgb(22.63031%, 89.404297%, 100%)" offset="0.0664062"/><stop stop-opacity="1" stop-color="rgb(22.944641%, 89.222717%, 100%)" offset="0.0703125"/><stop stop-opacity="1" stop-color="rgb(23.258972%, 89.039612%, 100%)" offset="0.0742188"/><stop stop-opacity="1" stop-color="rgb(23.573303%, 88.858032%, 100%)" offset="0.078125"/><stop stop-opacity="1" stop-color="rgb(23.886108%, 88.676453%, 100%)" offset="0.0820313"/><stop stop-opacity="1" stop-color="rgb(24.200439%, 88.494873%, 100%)" offset="0.0859375"/><stop stop-opacity="1" stop-color="rgb(24.513245%, 88.311768%, 100%)" offset="0.0898438"/><stop stop-opacity="1" stop-color="rgb(24.827576%, 88.130188%, 100%)" offset="0.09375"/><stop stop-opacity="1" stop-color="rgb(25.140381%, 87.948608%, 100%)" offset="0.0976563"/><stop stop-opacity="1" stop-color="rgb(25.454712%, 87.767029%, 100%)" offset="0.101563"/><stop stop-opacity="1" stop-color="rgb(25.767517%, 87.583923%, 100%)" offset="0.105469"/><stop stop-opacity="1" stop-color="rgb(26.081848%, 87.402344%, 100%)" offset="0.109375"/><stop stop-opacity="1" stop-color="rgb(26.394653%, 87.219238%, 100%)" offset="0.113281"/><stop stop-opacity="1" stop-color="rgb(26.708984%, 87.037659%, 100%)" offset="0.117188"/><stop stop-opacity="1" stop-color="rgb(27.02179%, 86.856079%, 100%)" offset="0.121094"/><stop stop-opacity="1" stop-color="rgb(27.336121%, 86.6745%, 100%)" offset="0.125"/><stop stop-opacity="1" stop-color="rgb(27.650452%, 86.491394%, 100%)" offset="0.128906"/><stop stop-opacity="1" stop-color="rgb(27.964783%, 86.309814%, 100%)" offset="0.132813"/><stop stop-opacity="1" stop-color="rgb(28.277588%, 86.128235%, 100%)" offset="0.136719"/><stop stop-opacity="1" stop-color="rgb(28.591919%, 85.946655%, 100%)" offset="0.140625"/><stop stop-opacity="1" stop-color="rgb(28.904724%, 85.76355%, 100%)" offset="0.144531"/><stop stop-opacity="1" stop-color="rgb(29.219055%, 85.58197%, 100%)" offset="0.148438"/><stop stop-opacity="1" stop-color="rgb(29.53186%, 85.398865%, 100%)" offset="0.152344"/><stop stop-opacity="1" stop-color="rgb(29.846191%, 85.217285%, 100%)" offset="0.15625"/><stop stop-opacity="1" stop-color="rgb(30.158997%, 85.035706%, 100%)" offset="0.160156"/><stop stop-opacity="1" stop-color="rgb(30.473328%, 84.854126%, 100%)" offset="0.164063"/><stop stop-opacity="1" stop-color="rgb(30.786133%, 84.671021%, 100%)" offset="0.167969"/><stop stop-opacity="1" stop-color="rgb(31.100464%, 84.489441%, 100%)" offset="0.171875"/><stop stop-opacity="1" stop-color="rgb(31.413269%, 84.307861%, 100%)" offset="0.175781"/><stop stop-opacity="1" stop-color="rgb(31.7276%, 84.126282%, 100%)" offset="0.179688"/><stop stop-opacity="1" stop-color="rgb(32.040405%, 83.943176%, 100%)" offset="0.183594"/><stop stop-opacity="1" stop-color="rgb(32.354736%, 83.761597%, 100%)" offset="0.1875"/><stop stop-opacity="1" stop-color="rgb(32.669067%, 83.578491%, 100%)" offset="0.191406"/><stop stop-opacity="1" stop-color="rgb(32.983398%, 83.396912%, 100%)" offset="0.195313"/><stop stop-opacity="1" stop-color="rgb(33.296204%, 83.215332%, 100%)" offset="0.199219"/><stop stop-opacity="1" stop-color="rgb(33.610535%, 83.033752%, 100%)" offset="0.203125"/><stop stop-opacity="1" stop-color="rgb(33.92334%, 82.850647%, 100%)" offset="0.207031"/><stop stop-opacity="1" stop-color="rgb(34.237671%, 82.669067%, 100%)" offset="0.210938"/><stop stop-opacity="1" stop-color="rgb(34.550476%, 82.487488%, 100%)" offset="0.214844"/><stop stop-opacity="1" stop-color="rgb(34.864807%, 82.305908%, 100%)" offset="0.21875"/><stop stop-opacity="1" stop-color="rgb(35.177612%, 82.122803%, 100%)" offset="0.222656"/><stop stop-opacity="1" stop-color="rgb(35.491943%, 81.941223%, 100%)" offset="0.226563"/><stop stop-opacity="1" stop-color="rgb(35.804749%, 81.759644%, 100%)" offset="0.230469"/><stop stop-opacity="1" stop-color="rgb(36.11908%, 81.578064%, 100%)" offset="0.234375"/><stop stop-opacity="1" stop-color="rgb(36.431885%, 81.394958%, 100%)" offset="0.238281"/><stop stop-opacity="1" stop-color="rgb(36.746216%, 81.213379%, 100%)" offset="0.242188"/><stop stop-opacity="1" stop-color="rgb(37.060547%, 81.030273%, 100%)" offset="0.246094"/><stop stop-opacity="1" stop-color="rgb(37.374878%, 80.848694%, 100%)" offset="0.25"/><stop stop-opacity="1" stop-color="rgb(37.687683%, 80.667114%, 100%)" offset="0.253906"/><stop stop-opacity="1" stop-color="rgb(38.002014%, 80.485535%, 100%)" offset="0.257813"/><stop stop-opacity="1" stop-color="rgb(38.314819%, 80.302429%, 100%)" offset="0.261719"/><stop stop-opacity="1" stop-color="rgb(38.62915%, 80.12085%, 100%)" offset="0.265625"/><stop stop-opacity="1" stop-color="rgb(38.941956%, 79.93927%, 100%)" offset="0.269531"/><stop stop-opacity="1" stop-color="rgb(39.256287%, 79.75769%, 100%)" offset="0.273438"/><stop stop-opacity="1" stop-color="rgb(39.569092%, 79.574585%, 100%)" offset="0.277344"/><stop stop-opacity="1" stop-color="rgb(39.883423%, 79.393005%, 100%)" offset="0.28125"/><stop stop-opacity="1" stop-color="rgb(40.196228%, 79.2099%, 100%)" offset="0.285156"/><stop stop-opacity="1" stop-color="rgb(40.510559%, 79.02832%, 100%)" offset="0.289063"/><stop stop-opacity="1" stop-color="rgb(40.823364%, 78.846741%, 100%)" offset="0.292969"/><stop stop-opacity="1" stop-color="rgb(41.137695%, 78.665161%, 100%)" offset="0.296875"/><stop stop-opacity="1" stop-color="rgb(41.452026%, 78.482056%, 100%)" offset="0.300781"/><stop stop-opacity="1" stop-color="rgb(41.766357%, 78.300476%, 100%)" offset="0.304688"/><stop stop-opacity="1" stop-color="rgb(42.079163%, 78.118896%, 100%)" offset="0.308594"/><stop stop-opacity="1" stop-color="rgb(42.393494%, 77.937317%, 100%)" offset="0.3125"/><stop stop-opacity="1" stop-color="rgb(42.706299%, 77.754211%, 100%)" offset="0.316406"/><stop stop-opacity="1" stop-color="rgb(43.02063%, 77.572632%, 100%)" offset="0.320313"/><stop stop-opacity="1" stop-color="rgb(43.333435%, 77.389526%, 100%)" offset="0.324219"/><stop stop-opacity="1" stop-color="rgb(43.647766%, 77.207947%, 100%)" offset="0.328125"/><stop stop-opacity="1" stop-color="rgb(43.960571%, 77.026367%, 100%)" offset="0.332031"/><stop stop-opacity="1" stop-color="rgb(44.274902%, 76.844788%, 100%)" offset="0.335938"/><stop stop-opacity="1" stop-color="rgb(44.587708%, 76.661682%, 100%)" offset="0.339844"/><stop stop-opacity="1" stop-color="rgb(44.902039%, 76.480103%, 100%)" offset="0.34375"/><stop stop-opacity="1" stop-color="rgb(45.214844%, 76.298523%, 100%)" offset="0.347656"/><stop stop-opacity="1" stop-color="rgb(45.529175%, 76.116943%, 100%)" offset="0.351563"/><stop stop-opacity="1" stop-color="rgb(45.84198%, 75.933838%, 100%)" offset="0.355469"/><stop stop-opacity="1" stop-color="rgb(46.156311%, 75.752258%, 100%)" offset="0.359375"/><stop stop-opacity="1" stop-color="rgb(46.470642%, 75.569153%, 100%)" offset="0.363281"/><stop stop-opacity="1" stop-color="rgb(46.784973%, 75.387573%, 100%)" offset="0.367188"/><stop stop-opacity="1" stop-color="rgb(47.097778%, 75.205994%, 100%)" offset="0.371094"/><stop stop-opacity="1" stop-color="rgb(47.412109%, 75.024414%, 100%)" offset="0.375"/><stop stop-opacity="1" stop-color="rgb(47.724915%, 74.841309%, 100%)" offset="0.378906"/><stop stop-opacity="1" stop-color="rgb(48.039246%, 74.659729%, 100%)" offset="0.382813"/><stop stop-opacity="1" stop-color="rgb(48.352051%, 74.478149%, 100%)" offset="0.386719"/><stop stop-opacity="1" stop-color="rgb(48.666382%, 74.29657%, 100%)" offset="0.390625"/><stop stop-opacity="1" stop-color="rgb(48.979187%, 74.113464%, 100%)" offset="0.394531"/><stop stop-opacity="1" stop-color="rgb(49.293518%, 73.931885%, 100%)" offset="0.398438"/><stop stop-opacity="1" stop-color="rgb(49.606323%, 73.750305%, 100%)" offset="0.402344"/><stop stop-opacity="1" stop-color="rgb(49.920654%, 73.568726%, 100%)" offset="0.40625"/><stop stop-opacity="1" stop-color="rgb(50.233459%, 73.38562%, 100%)" offset="0.410156"/><stop stop-opacity="1" stop-color="rgb(50.547791%, 73.204041%, 100%)" offset="0.414063"/><stop stop-opacity="1" stop-color="rgb(50.862122%, 73.020935%, 100%)" offset="0.417969"/><stop stop-opacity="1" stop-color="rgb(51.176453%, 72.839355%, 100%)" offset="0.421875"/><stop stop-opacity="1" stop-color="rgb(51.489258%, 72.657776%, 100%)" offset="0.425781"/><stop stop-opacity="1" stop-color="rgb(51.803589%, 72.476196%, 100%)" offset="0.429688"/><stop stop-opacity="1" stop-color="rgb(52.116394%, 72.293091%, 100%)" offset="0.433594"/><stop stop-opacity="1" stop-color="rgb(52.430725%, 72.111511%, 100%)" offset="0.4375"/><stop stop-opacity="1" stop-color="rgb(52.74353%, 71.929932%, 100%)" offset="0.441406"/><stop stop-opacity="1" stop-color="rgb(53.057861%, 71.748352%, 100%)" offset="0.445313"/><stop stop-opacity="1" stop-color="rgb(53.370667%, 71.565247%, 100%)" offset="0.449219"/><stop stop-opacity="1" stop-color="rgb(53.684998%, 71.383667%, 100%)" offset="0.453125"/><stop stop-opacity="1" stop-color="rgb(53.997803%, 71.200562%, 100%)" offset="0.457031"/><stop stop-opacity="1" stop-color="rgb(54.312134%, 71.018982%, 100%)" offset="0.460938"/><stop stop-opacity="1" stop-color="rgb(54.624939%, 70.837402%, 100%)" offset="0.464844"/><stop stop-opacity="1" stop-color="rgb(54.93927%, 70.655823%, 100%)" offset="0.46875"/><stop stop-opacity="1" stop-color="rgb(55.253601%, 70.472717%, 100%)" offset="0.472656"/><stop stop-opacity="1" stop-color="rgb(55.567932%, 70.291138%, 100%)" offset="0.476563"/><stop stop-opacity="1" stop-color="rgb(55.880737%, 70.109558%, 100%)" offset="0.480469"/><stop stop-opacity="1" stop-color="rgb(56.195068%, 69.927979%, 100%)" offset="0.484375"/><stop stop-opacity="1" stop-color="rgb(56.507874%, 69.744873%, 100%)" offset="0.488281"/><stop stop-opacity="1" stop-color="rgb(56.822205%, 69.563293%, 100%)" offset="0.492188"/><stop stop-opacity="1" stop-color="rgb(57.13501%, 69.380188%, 100%)" offset="0.496094"/><stop stop-opacity="1" stop-color="rgb(57.449341%, 69.198608%, 100%)" offset="0.5"/><stop stop-opacity="1" stop-color="rgb(57.762146%, 69.017029%, 100%)" offset="0.503906"/><stop stop-opacity="1" stop-color="rgb(58.076477%, 68.835449%, 100%)" offset="0.507812"/><stop stop-opacity="1" stop-color="rgb(58.389282%, 68.652344%, 100%)" offset="0.511719"/><stop stop-opacity="1" stop-color="rgb(58.703613%, 68.470764%, 100%)" offset="0.515625"/><stop stop-opacity="1" stop-color="rgb(59.016418%, 68.289185%, 100%)" offset="0.519531"/><stop stop-opacity="1" stop-color="rgb(59.33075%, 68.107605%, 100%)" offset="0.523438"/><stop stop-opacity="1" stop-color="rgb(59.643555%, 67.9245%, 100%)" offset="0.527344"/><stop stop-opacity="1" stop-color="rgb(59.957886%, 67.74292%, 100%)" offset="0.53125"/><stop stop-opacity="1" stop-color="rgb(60.272217%, 67.559814%, 100%)" offset="0.535156"/><stop stop-opacity="1" stop-color="rgb(60.586548%, 67.378235%, 100%)" offset="0.539062"/><stop stop-opacity="1" stop-color="rgb(60.899353%, 67.196655%, 100%)" offset="0.542969"/><stop stop-opacity="1" stop-color="rgb(61.213684%, 67.015076%, 100%)" offset="0.546875"/><stop stop-opacity="1" stop-color="rgb(61.526489%, 66.83197%, 100%)" offset="0.550781"/><stop stop-opacity="1" stop-color="rgb(61.84082%, 66.650391%, 100%)" offset="0.554688"/><stop stop-opacity="1" stop-color="rgb(62.153625%, 66.468811%, 100%)" offset="0.558594"/><stop stop-opacity="1" stop-color="rgb(62.467957%, 66.287231%, 100%)" offset="0.5625"/><stop stop-opacity="1" stop-color="rgb(62.780762%, 66.104126%, 100%)" offset="0.566406"/><stop stop-opacity="1" stop-color="rgb(63.095093%, 65.922546%, 100%)" offset="0.570312"/><stop stop-opacity="1" stop-color="rgb(63.407898%, 65.739441%, 100%)" offset="0.574219"/><stop stop-opacity="1" stop-color="rgb(63.722229%, 65.557861%, 100%)" offset="0.578125"/><stop stop-opacity="1" stop-color="rgb(64.035034%, 65.376282%, 100%)" offset="0.582031"/><stop stop-opacity="1" stop-color="rgb(64.349365%, 65.194702%, 100%)" offset="0.585938"/><stop stop-opacity="1" stop-color="rgb(64.663696%, 65.011597%, 100%)" offset="0.589844"/><stop stop-opacity="1" stop-color="rgb(64.978027%, 64.830017%, 100%)" offset="0.59375"/><stop stop-opacity="1" stop-color="rgb(65.290833%, 64.648438%, 100%)" offset="0.597656"/><stop stop-opacity="1" stop-color="rgb(65.605164%, 64.466858%, 100%)" offset="0.601562"/><stop stop-opacity="1" stop-color="rgb(65.917969%, 64.283752%, 100%)" offset="0.605469"/><stop stop-opacity="1" stop-color="rgb(66.2323%, 64.102173%, 100%)" offset="0.609375"/><stop stop-opacity="1" stop-color="rgb(66.545105%, 63.920593%, 100%)" offset="0.613281"/><stop stop-opacity="1" stop-color="rgb(66.859436%, 63.739014%, 100%)" offset="0.617188"/><stop stop-opacity="1" stop-color="rgb(67.172241%, 63.555908%, 100%)" offset="0.621094"/><stop stop-opacity="1" stop-color="rgb(67.486572%, 63.374329%, 100%)" offset="0.625"/><stop stop-opacity="1" stop-color="rgb(67.799377%, 63.191223%, 100%)" offset="0.628906"/><stop stop-opacity="1" stop-color="rgb(68.113708%, 63.009644%, 100%)" offset="0.632812"/><stop stop-opacity="1" stop-color="rgb(68.426514%, 62.828064%, 100%)" offset="0.636719"/><stop stop-opacity="1" stop-color="rgb(68.740845%, 62.646484%, 100%)" offset="0.640625"/><stop stop-opacity="1" stop-color="rgb(69.055176%, 62.463379%, 100%)" offset="0.644531"/><stop stop-opacity="1" stop-color="rgb(69.369507%, 62.281799%, 100%)" offset="0.648438"/><stop stop-opacity="1" stop-color="rgb(69.682312%, 62.10022%, 100%)" offset="0.652344"/><stop stop-opacity="1" stop-color="rgb(69.996643%, 61.91864%, 100%)" offset="0.65625"/><stop stop-opacity="1" stop-color="rgb(70.309448%, 61.735535%, 100%)" offset="0.660156"/><stop stop-opacity="1" stop-color="rgb(70.623779%, 61.553955%, 100%)" offset="0.664062"/><stop stop-opacity="1" stop-color="rgb(70.936584%, 61.37085%, 100%)" offset="0.667969"/><stop stop-opacity="1" stop-color="rgb(71.250916%, 61.18927%, 100%)" offset="0.671875"/><stop stop-opacity="1" stop-color="rgb(71.563721%, 61.00769%, 100%)" offset="0.675781"/><stop stop-opacity="1" stop-color="rgb(71.878052%, 60.826111%, 100%)" offset="0.679688"/><stop stop-opacity="1" stop-color="rgb(72.190857%, 60.643005%, 100%)" offset="0.683594"/><stop stop-opacity="1" stop-color="rgb(72.505188%, 60.461426%, 100%)" offset="0.6875"/><stop stop-opacity="1" stop-color="rgb(72.817993%, 60.279846%, 100%)" offset="0.691406"/><stop stop-opacity="1" stop-color="rgb(73.132324%, 60.098267%, 100%)" offset="0.695312"/><stop stop-opacity="1" stop-color="rgb(73.445129%, 59.915161%, 100%)" offset="0.699219"/><stop stop-opacity="1" stop-color="rgb(73.75946%, 59.733582%, 100%)" offset="0.703125"/><stop stop-opacity="1" stop-color="rgb(74.073792%, 59.550476%, 100%)" offset="0.707031"/><stop stop-opacity="1" stop-color="rgb(74.388123%, 59.368896%, 100%)" offset="0.710938"/><stop stop-opacity="1" stop-color="rgb(74.700928%, 59.187317%, 100%)" offset="0.714844"/><stop stop-opacity="1" stop-color="rgb(75.015259%, 59.005737%, 100%)" offset="0.71875"/><stop stop-opacity="1" stop-color="rgb(75.328064%, 58.822632%, 100%)" offset="0.722656"/><stop stop-opacity="1" stop-color="rgb(75.642395%, 58.641052%, 100%)" offset="0.726562"/><stop stop-opacity="1" stop-color="rgb(75.9552%, 58.459473%, 100%)" offset="0.730469"/><stop stop-opacity="1" stop-color="rgb(76.269531%, 58.277893%, 100%)" offset="0.734375"/><stop stop-opacity="1" stop-color="rgb(76.582336%, 58.094788%, 100%)" offset="0.738281"/><stop stop-opacity="1" stop-color="rgb(76.896667%, 57.913208%, 100%)" offset="0.742188"/><stop stop-opacity="1" stop-color="rgb(77.209473%, 57.730103%, 100%)" offset="0.746094"/><stop stop-opacity="1" stop-color="rgb(77.523804%, 57.548523%, 100%)" offset="0.75"/><stop stop-opacity="1" stop-color="rgb(77.836609%, 57.366943%, 100%)" offset="0.753906"/><stop stop-opacity="1" stop-color="rgb(78.15094%, 57.185364%, 100%)" offset="0.757812"/><stop stop-opacity="1" stop-color="rgb(78.465271%, 57.002258%, 100%)" offset="0.761719"/><stop stop-opacity="1" stop-color="rgb(78.779602%, 56.820679%, 100%)" offset="0.765625"/><stop stop-opacity="1" stop-color="rgb(79.092407%, 56.639099%, 100%)" offset="0.769531"/><stop stop-opacity="1" stop-color="rgb(79.406738%, 56.45752%, 100%)" offset="0.773438"/><stop stop-opacity="1" stop-color="rgb(79.719543%, 56.274414%, 100%)" offset="0.777344"/><stop stop-opacity="1" stop-color="rgb(80.033875%, 56.092834%, 100%)" offset="0.78125"/><stop stop-opacity="1" stop-color="rgb(80.34668%, 55.911255%, 100%)" offset="0.785156"/><stop stop-opacity="1" stop-color="rgb(80.661011%, 55.729675%, 100%)" offset="0.789062"/><stop stop-opacity="1" stop-color="rgb(80.973816%, 55.54657%, 100%)" offset="0.792969"/><stop stop-opacity="1" stop-color="rgb(81.288147%, 55.36499%, 100%)" offset="0.796875"/><stop stop-opacity="1" stop-color="rgb(81.600952%, 55.181885%, 100%)" offset="0.800781"/><stop stop-opacity="1" stop-color="rgb(81.915283%, 55.000305%, 100%)" offset="0.804688"/><stop stop-opacity="1" stop-color="rgb(82.228088%, 54.818726%, 100%)" offset="0.808594"/><stop stop-opacity="1" stop-color="rgb(82.542419%, 54.637146%, 100%)" offset="0.8125"/><stop stop-opacity="1" stop-color="rgb(82.85675%, 54.454041%, 100%)" offset="0.816406"/><stop stop-opacity="1" stop-color="rgb(83.171082%, 54.272461%, 100%)" offset="0.820312"/><stop stop-opacity="1" stop-color="rgb(83.483887%, 54.090881%, 100%)" offset="0.824219"/><stop stop-opacity="1" stop-color="rgb(83.798218%, 53.909302%, 100%)" offset="0.828125"/><stop stop-opacity="1" stop-color="rgb(84.111023%, 53.726196%, 100%)" offset="0.832031"/><stop stop-opacity="1" stop-color="rgb(84.425354%, 53.544617%, 100%)" offset="0.835938"/><stop stop-opacity="1" stop-color="rgb(84.738159%, 53.361511%, 100%)" offset="0.839844"/><stop stop-opacity="1" stop-color="rgb(85.05249%, 53.179932%, 100%)" offset="0.84375"/><stop stop-opacity="1" stop-color="rgb(85.365295%, 52.998352%, 100%)" offset="0.847656"/><stop stop-opacity="1" stop-color="rgb(85.679626%, 52.816772%, 100%)" offset="0.851562"/><stop stop-opacity="1" stop-color="rgb(85.992432%, 52.633667%, 100%)" offset="0.855469"/><stop stop-opacity="1" stop-color="rgb(86.306763%, 52.452087%, 100%)" offset="0.859375"/><stop stop-opacity="1" stop-color="rgb(86.619568%, 52.270508%, 100%)" offset="0.863281"/><stop stop-opacity="1" stop-color="rgb(86.933899%, 52.088928%, 100%)" offset="0.867188"/><stop stop-opacity="1" stop-color="rgb(87.246704%, 51.905823%, 100%)" offset="0.871094"/><stop stop-opacity="1" stop-color="rgb(87.561035%, 51.724243%, 100%)" offset="0.875"/><stop stop-opacity="1" stop-color="rgb(87.875366%, 51.541138%, 100%)" offset="0.878906"/><stop stop-opacity="1" stop-color="rgb(88.189697%, 51.359558%, 100%)" offset="0.882812"/><stop stop-opacity="1" stop-color="rgb(88.502502%, 51.177979%, 100%)" offset="0.886719"/><stop stop-opacity="1" stop-color="rgb(88.816833%, 50.996399%, 100%)" offset="0.890625"/><stop stop-opacity="1" stop-color="rgb(89.129639%, 50.813293%, 100%)" offset="0.894531"/><stop stop-opacity="1" stop-color="rgb(89.44397%, 50.631714%, 100%)" offset="0.898438"/><stop stop-opacity="1" stop-color="rgb(89.756775%, 50.450134%, 100%)" offset="0.902344"/><stop stop-opacity="1" stop-color="rgb(90.071106%, 50.268555%, 100%)" offset="0.90625"/><stop stop-opacity="1" stop-color="rgb(90.383911%, 50.085449%, 100%)" offset="0.910156"/><stop stop-opacity="1" stop-color="rgb(90.698242%, 49.90387%, 100%)" offset="0.914062"/><stop stop-opacity="1" stop-color="rgb(91.011047%, 49.720764%, 100%)" offset="0.917969"/><stop stop-opacity="1" stop-color="rgb(91.325378%, 49.539185%, 100%)" offset="0.921875"/><stop stop-opacity="1" stop-color="rgb(91.638184%, 49.357605%, 100%)" offset="0.925781"/><stop stop-opacity="1" stop-color="rgb(91.952515%, 49.176025%, 100%)" offset="0.929688"/><stop stop-opacity="1" stop-color="rgb(92.266846%, 48.99292%, 100%)" offset="0.933594"/><stop stop-opacity="1" stop-color="rgb(92.581177%, 48.81134%, 100%)" offset="0.9375"/><stop stop-opacity="1" stop-color="rgb(92.893982%, 48.629761%, 100%)" offset="0.941406"/><stop stop-opacity="1" stop-color="rgb(93.208313%, 48.448181%, 100%)" offset="0.945312"/><stop stop-opacity="1" stop-color="rgb(93.521118%, 48.265076%, 100%)" offset="0.949219"/><stop stop-opacity="1" stop-color="rgb(93.835449%, 48.083496%, 100%)" offset="0.953125"/><stop stop-opacity="1" stop-color="rgb(94.148254%, 47.900391%, 100%)" offset="0.957031"/><stop stop-opacity="1" stop-color="rgb(94.462585%, 47.718811%, 100%)" offset="0.960938"/><stop stop-opacity="1" stop-color="rgb(94.775391%, 47.537231%, 100%)" offset="0.964844"/><stop stop-opacity="1" stop-color="rgb(95.089722%, 47.355652%, 100%)" offset="0.96875"/><stop stop-opacity="1" stop-color="rgb(95.402527%, 47.172546%, 100%)" offset="0.972656"/><stop stop-opacity="1" stop-color="rgb(95.716858%, 46.990967%, 100%)" offset="0.976562"/><stop stop-opacity="1" stop-color="rgb(96.029663%, 46.809387%, 100%)" offset="0.980469"/><stop stop-opacity="1" stop-color="rgb(96.343994%, 46.627808%, 100%)" offset="0.984375"/><stop stop-opacity="1" stop-color="rgb(96.658325%, 46.444702%, 100%)" offset="0.988281"/><stop stop-opacity="1" stop-color="rgb(96.972656%, 46.263123%, 100%)" offset="0.992188"/><stop stop-opacity="1" stop-color="rgb(97.285461%, 46.081543%, 100%)" offset="0.996094"/><stop stop-opacity="1" stop-color="rgb(97.599792%, 45.899963%, 100%)" offset="1"/></linearGradient></defs><g clip-path="url(#id1)"><g clip-path="url(#id2)"><path fill="url(#id3)" d="M 1.34375 0.613281 L 1.34375 374.429688 L 374 374.429688 L 374 0.613281 Z M 1.34375 0.613281 " fill-rule="nonzero"/></g></g></svg>