<svg xmlns="http://www.w3.org/2000/svg" xmlns:xlink="http://www.w3.org/1999/xlink" width="500" zoomAndPan="magnify" viewBox="0 0 375 374.999991" height="500" preserveAspectRatio="xMidYMid meet" version="1.0"><defs><g/></defs><g fill="#ff0000" fill-opacity="1"><g transform="translate(16.429599, 278.527812)"><g><path d="M 88.421875 -13.6875 C 88.128906 -12.488281 87.609375 -11.628906 86.859375 -11.109375 C 86.109375 -10.585938 85.207031 -10.625 84.15625 -11.21875 L 7.859375 -47.578125 C 6.359375 -48.328125 5.679688 -49.597656 5.828125 -51.390625 L 9.65625 -81.921875 C 9.800781 -83.710938 10.769531 -84.984375 12.5625 -85.734375 L 97.625 -122.09375 L 99.421875 -122.546875 C 100.171875 -122.546875 100.734375 -122.28125 101.109375 -121.75 C 101.484375 -121.226562 101.597656 -120.519531 101.453125 -119.625 L 97.40625 -86.859375 C 97.101562 -85.054688 96.054688 -83.785156 94.265625 -83.046875 L 48.703125 -67.328125 C 47.804688 -66.878906 47.804688 -66.429688 48.703125 -65.984375 L 90.21875 -50.28125 C 91.863281 -49.53125 92.539062 -48.253906 92.25 -46.453125 Z M 88.421875 -13.6875 "/></g></g></g><g fill="#ff0000" fill-opacity="1"><g transform="translate(127.302412, 278.527812)"><g><path d="M 1.34375 0 C -0.445312 0 -1.34375 -0.671875 -1.34375 -2.015625 L -0.890625 -3.8125 L 70.703125 -154.40625 C 71.441406 -156.207031 72.785156 -157.109375 74.734375 -157.109375 L 109.078125 -157.109375 C 110.722656 -157.109375 111.546875 -156.4375 111.546875 -155.09375 L 111.09375 -153.296875 L 39.5 -2.6875 C 38.75 -0.894531 37.40625 0 35.46875 0 Z M 1.34375 0 "/></g></g></g><g fill="#ff0000" fill-opacity="1"><g transform="translate(245.581673, 278.527812)"><g><path d="M 3.140625 -10.765625 C 1.640625 -10.765625 1.039062 -11.738281 1.34375 -13.6875 L 5.15625 -46.453125 C 5.457031 -48.253906 6.503906 -49.53125 8.296875 -50.28125 L 53.859375 -65.984375 C 54.765625 -66.429688 54.84375 -66.878906 54.09375 -67.328125 L 12.34375 -83.046875 C 10.695312 -83.785156 10.023438 -85.054688 10.328125 -86.859375 L 14.359375 -119.625 C 14.515625 -120.820312 14.960938 -121.679688 15.703125 -122.203125 C 16.453125 -122.722656 17.351562 -122.6875 18.40625 -122.09375 L 94.71875 -85.734375 C 96.207031 -84.984375 96.878906 -83.710938 96.734375 -81.921875 L 92.921875 -51.390625 C 92.765625 -49.597656 91.789062 -48.328125 90 -47.578125 L 4.9375 -11.21875 Z M 3.140625 -10.765625 "/></g></g></g><g fill="#00ffff" fill-opacity="1"><g transform="translate(34.471907, 274.36241)"><g><path d="M 88.421875 -13.6875 C 88.128906 -12.488281 87.609375 -11.628906 86.859375 -11.109375 C 86.109375 -10.585938 85.207031 -10.625 84.15625 -11.21875 L 7.859375 -47.578125 C 6.359375 -48.328125 5.679688 -49.597656 5.828125 -51.390625 L 9.65625 -81.921875 C 9.800781 -83.710938 10.769531 -84.984375 12.5625 -85.734375 L 97.625 -122.09375 L 99.421875 -122.546875 C 100.171875 -122.546875 100.734375 -122.28125 101.109375 -121.75 C 101.484375 -121.226562 101.597656 -120.519531 101.453125 -119.625 L 97.40625 -86.859375 C 97.101562 -85.054688 96.054688 -83.785156 94.265625 -83.046875 L 48.703125 -67.328125 C 47.804688 -66.878906 47.804688 -66.429688 48.703125 -65.984375 L 90.21875 -50.28125 C 91.863281 -49.53125 92.539062 -48.253906 92.25 -46.453125 Z M 88.421875 -13.6875 "/></g></g></g><g fill="#00ffff" fill-opacity="1"><g transform="translate(145.34472, 274.36241)"><g><path d="M 1.34375 0 C -0.445312 0 -1.34375 -0.671875 -1.34375 -2.015625 L -0.890625 -3.8125 L 70.703125 -154.40625 C 71.441406 -156.207031 72.785156 -157.109375 74.734375 -157.109375 L 109.078125 -157.109375 C 110.722656 -157.109375 111.546875 -156.4375 111.546875 -155.09375 L 111.09375 -153.296875 L 39.5 -2.6875 C 38.75 -0.894531 37.40625 0 35.46875 0 Z M 1.34375 0 "/></g></g></g><g fill="#00ffff" fill-opacity="1"><g transform="translate(263.623981, 274.36241)"><g><path d="M 3.140625 -10.765625 C 1.640625 -10.765625 1.039062 -11.738281 1.34375 -13.6875 L 5.15625 -46.453125 C 5.457031 -48.253906 6.503906 -49.53125 8.296875 -50.28125 L 53.859375 -65.984375 C 54.765625 -66.429688 54.84375 -66.878906 54.09375 -67.328125 L 12.34375 -83.046875 C 10.695312 -83.785156 10.023438 -85.054688 10.328125 -86.859375 L 14.359375 -119.625 C 14.515625 -120.820312 14.960938 -121.679688 15.703125 -122.203125 C 16.453125 -122.722656 17.351562 -122.6875 18.40625 -122.09375 L 94.71875 -85.734375 C 96.207031 -84.984375 96.878906 -83.710938 96.734375 -81.921875 L 92.921875 -51.390625 C 92.765625 -49.597656 91.789062 -48.328125 90 -47.578125 L 4.9375 -11.21875 Z M 3.140625 -10.765625 "/></g></g></g><g fill="#191919" fill-opacity="1"><g transform="translate(25.450754, 276.445111)"><g><path d="M 88.421875 -13.6875 C 88.128906 -12.488281 87.609375 -11.628906 86.859375 -11.109375 C 86.109375 -10.585938 85.207031 -10.625 84.15625 -11.21875 L 7.859375 -47.578125 C 6.359375 -48.328125 5.679688 -49.597656 5.828125 -51.390625 L 9.65625 -81.921875 C 9.800781 -83.710938 10.769531 -84.984375 12.5625 -85.734375 L 97.625 -122.09375 L 99.421875 -122.546875 C 100.171875 -122.546875 100.734375 -122.28125 101.109375 -121.75 C 101.484375 -121.226562 101.597656 -120.519531 101.453125 -119.625 L 97.40625 -86.859375 C 97.101562 -85.054688 96.054688 -83.785156 94.265625 -83.046875 L 48.703125 -67.328125 C 47.804688 -66.878906 47.804688 -66.429688 48.703125 -65.984375 L 90.21875 -50.28125 C 91.863281 -49.53125 92.539062 -48.253906 92.25 -46.453125 Z M 88.421875 -13.6875 "/></g></g></g><g fill="#191919" fill-opacity="1"><g transform="translate(136.323566, 276.445111)"><g><path d="M 1.34375 0 C -0.445312 0 -1.34375 -0.671875 -1.34375 -2.015625 L -0.890625 -3.8125 L 70.703125 -154.40625 C 71.441406 -156.207031 72.785156 -157.109375 74.734375 -157.109375 L 109.078125 -157.109375 C 110.722656 -157.109375 111.546875 -156.4375 111.546875 -155.09375 L 111.09375 -153.296875 L 39.5 -2.6875 C 38.75 -0.894531 37.40625 0 35.46875 0 Z M 1.34375 0 "/></g></g></g><g fill="#191919" fill-opacity="1"><g transform="translate(254.602827, 276.445111)"><g><path d="M 3.140625 -10.765625 C 1.640625 -10.765625 1.039062 -11.738281 1.34375 -13.6875 L 5.15625 -46.453125 C 5.457031 -48.253906 6.503906 -49.53125 8.296875 -50.28125 L 53.859375 -65.984375 C 54.765625 -66.429688 54.84375 -66.878906 54.09375 -67.328125 L 12.34375 -83.046875 C 10.695312 -83.785156 10.023438 -85.054688 10.328125 -86.859375 L 14.359375 -119.625 C 14.515625 -120.820312 14.960938 -121.679688 15.703125 -122.203125 C 16.453125 -122.722656 17.351562 -122.6875 18.40625 -122.09375 L 94.71875 -85.734375 C 96.207031 -84.984375 96.878906 -83.710938 96.734375 -81.921875 L 92.921875 -51.390625 C 92.765625 -49.597656 91.789062 -48.328125 90 -47.578125 L 4.9375 -11.21875 Z M 3.140625 -10.765625 "/></g></g></g></svg>