<svg xmlns="http://www.w3.org/2000/svg" xmlns:xlink="http://www.w3.org/1999/xlink" width="500" zoomAndPan="magnify" viewBox="0 0 375 374.999991" height="500" preserveAspectRatio="xMidYMid meet" version="1.0"><defs><clipPath id="id1"><path d="M 26.25 5 L 343 5 L 343 374 L 26.25 374 Z M 26.25 5 " clip-rule="nonzero"/></clipPath><clipPath id="id2"><path d="M 26.25 71 L 343 71 L 343 371 L 26.25 371 Z M 26.25 71 " clip-rule="nonzero"/></clipPath></defs><g clip-path="url(#id1)"><path fill="#9da0ab" d="M 157.316406 162.261719 L 157.316406 141.953125 L 34.066406 141.953125 L 33.890625 34.453125 L 37.039062 34.453125 C 37.039062 34.453125 97.269531 54.414062 167.292969 57.914062 C 192.226562 59.15625 217.695312 59.097656 240.15625 58.503906 C 239.511719 60.28125 238.199219 64.28125 239.429688 64.480469 C 241.007812 64.742188 243.804688 65.441406 243.804688 65.441406 C 246.082031 69.289062 248.445312 74.546875 253.871094 73.496094 C 259.296875 72.445312 259.386719 72.269531 259.386719 72.269531 L 262.367188 78.222656 L 274.269531 72.886719 C 274.269531 72.886719 269.453125 65.878906 270.421875 62.910156 C 271.105469 60.789062 272.015625 59.773438 273.429688 57.183594 C 296.449219 55.976562 311.5625 54.59375 311.5625 54.59375 L 311.5625 104.957031 C 305.128906 94.125 299.03125 87.03125 292.480469 82.667969 C 281.976562 75.664062 276.609375 71.933594 276.609375 71.933594 L 259.335938 79.636719 L 261.433594 85.945312 C 261.433594 85.945312 260.71875 88.929688 260.011719 93.769531 C 259.074219 94.816406 258.285156 95.957031 257.699219 97.148438 C 255.34375 101.9375 244.304688 127.253906 237.910156 141.96875 L 181.828125 141.96875 L 181.828125 162.277344 L 234.351562 162.277344 L 234.351562 165.425781 L 111.449219 165.425781 L 111.449219 162.277344 L 157.316406 162.277344 Z M 335.71875 184.492188 L 266.394531 184.492188 L 266.042969 187.46875 C 266.042969 187.46875 268.671875 195.875 260.964844 197.796875 C 253.261719 199.722656 223.851562 205.671875 208.792969 209.878906 C 193.738281 214.078125 188.660156 224.582031 187.082031 237.542969 C 185.503906 250.5 191.28125 261.003906 200.386719 273.609375 C 209.492188 286.210938 239.429688 324.902344 239.429688 324.902344 L 265.335938 316.496094 L 235.75 250.492188 L 243.976562 250.492188 L 275.492188 319.296875 L 299.480469 310.019531 L 282.148438 250.140625 C 282.148438 250.140625 292.472656 250.140625 316.988281 250.140625 C 341.496094 250.148438 348.675781 216.886719 335.71875 184.492188 Z M 157.316406 162.261719 L 157.316406 141.953125 L 34.066406 141.953125 L 33.890625 34.453125 L 37.039062 34.453125 C 37.039062 34.453125 97.269531 54.414062 167.292969 57.914062 C 192.226562 59.15625 217.695312 59.097656 240.15625 58.503906 C 239.511719 60.28125 238.199219 64.28125 239.429688 64.480469 C 241.007812 64.742188 243.804688 65.441406 243.804688 65.441406 C 246.082031 69.289062 248.445312 74.546875 253.871094 73.496094 C 259.296875 72.445312 259.386719 72.269531 259.386719 72.269531 L 262.367188 78.222656 L 274.269531 72.886719 C 274.269531 72.886719 269.453125 65.878906 270.421875 62.910156 C 271.105469 60.789062 272.015625 59.773438 273.429688 57.183594 C 296.449219 55.976562 311.5625 54.59375 311.5625 54.59375 L 311.5625 104.957031 C 305.128906 94.125 299.03125 87.03125 292.480469 82.667969 C 281.976562 75.664062 276.609375 71.933594 276.609375 71.933594 L 259.335938 79.636719 L 261.433594 85.945312 C 261.433594 85.945312 260.71875 88.929688 260.011719 93.769531 C 259.074219 94.816406 258.285156 95.957031 257.699219 97.148438 C 255.34375 101.9375 244.304688 127.253906 237.910156 141.96875 L 181.828125 141.96875 L 181.828125 162.277344 L 234.351562 162.277344 L 234.351562 165.425781 L 111.449219 165.425781 L 111.449219 162.277344 L 157.316406 162.277344 Z M 335.71875 184.492188 L 266.394531 184.492188 L 266.042969 187.46875 C 266.042969 187.46875 268.671875 195.875 260.964844 197.796875 C 253.261719 199.722656 223.851562 205.671875 208.792969 209.878906 C 193.738281 214.078125 188.660156 224.582031 187.082031 237.542969 C 185.503906 250.5 191.28125 261.003906 200.386719 273.609375 C 209.492188 286.210938 239.429688 324.902344 239.429688 324.902344 L 265.335938 316.496094 L 235.75 250.492188 L 243.976562 250.492188 L 275.492188 319.296875 L 299.480469 310.019531 L 282.148438 250.140625 C 282.148438 250.140625 292.472656 250.140625 316.988281 250.140625 C 341.496094 250.148438 348.675781 216.886719 335.71875 184.492188 Z M 340.300781 190.269531 L 286.644531 190.269531 L 278.351562 170.496094 L 274.792969 170.496094 L 275.4375 190.96875 L 260.101562 190.96875 C 258.652344 190.96875 257.480469 189.792969 257.503906 188.339844 C 257.550781 184.910156 257.644531 178.394531 257.757812 170.496094 L 121.253906 170.496094 L 121.253906 361.753906 L 139.84375 363.632812 C 143.605469 364.011719 146.464844 367.175781 146.464844 370.949219 L 51.222656 370.949219 L 51.222656 370.921875 C 51.222656 367.152344 54.066406 363.996094 57.808594 363.601562 L 75.738281 361.71875 L 75.738281 170.503906 L 26.355469 170.503906 L 26.355469 165.203125 L 257.824219 165.203125 C 258.113281 144.824219 258.496094 118.515625 258.628906 110.4375 C 258.859375 96.664062 261.429688 85.929688 261.429688 85.929688 L 259.328125 79.625 L 276.601562 71.917969 C 276.601562 71.917969 281.96875 75.65625 292.472656 82.652344 C 302.976562 89.660156 312.3125 103.664062 323.757812 128.871094 C 333.382812 150.082031 340.359375 179.066406 342.332031 187.722656 C 342.628906 189.035156 341.640625 190.269531 340.300781 190.269531 Z M 227.582031 175.914062 C 218.359375 172.648438 192.21875 162.722656 192.21875 162.722656 C 192.21875 162.722656 187.082031 162.722656 182.414062 161.09375 C 177.746094 159.460938 171.679688 156.074219 171.679688 156.074219 C 171.679688 156.074219 164.675781 160.742188 163.273438 161.679688 C 161.875 162.613281 160.9375 160.75 161.875 159.582031 C 162.804688 158.414062 162.574219 158.882812 167.480469 153.625 C 172.378906 148.378906 179.734375 145.457031 184.054688 145.921875 C 188.371094 146.390625 233.308594 152.574219 233.308594 152.574219 C 233.308594 152.574219 254.347656 103.960938 257.707031 97.132812 C 261.09375 90.246094 271.007812 85 279.296875 89.777344 C 287.582031 94.566406 288.164062 105.417969 282.5625 116.273438 C 276.957031 127.128906 260.734375 160.972656 254.550781 170.777344 C 248.363281 180.582031 236.800781 179.183594 227.582031 175.914062 Z M 239.429688 64.480469 C 241.007812 64.742188 243.804688 65.441406 243.804688 65.441406 C 246.082031 69.289062 248.445312 74.546875 253.871094 73.496094 C 259.296875 72.445312 259.386719 72.269531 259.386719 72.269531 L 262.367188 78.222656 L 274.269531 72.886719 C 274.269531 72.886719 269.453125 65.878906 270.421875 62.910156 C 271.382812 59.929688 272.78125 59.140625 275.410156 53.105469 C 278.039062 47.066406 280.226562 31.835938 267.792969 26.929688 C 255.359375 22.03125 241.886719 29.46875 238.996094 38.042969 C 236.109375 46.621094 240.484375 57.652344 240.484375 57.652344 C 240.484375 57.652344 237.855469 64.21875 239.429688 64.480469 Z M 274.644531 166.46875 L 275.140625 184.492188 L 284.066406 184.492188 L 276.460938 166.074219 C 276.066406 165.105469 274.613281 165.417969 274.644531 166.46875 Z M 263.9375 316.675781 L 241.878906 324.203125 C 241.878906 324.203125 247.65625 335.40625 251.683594 340.835938 C 255.710938 346.261719 250.28125 357.46875 247.484375 364.292969 C 244.683594 371.121094 245.144531 375.039062 250.632812 372.171875 C 254.660156 370.070312 273.742188 357.636719 276.71875 356.066406 C 279.699219 354.488281 280.746094 350.820312 279.347656 347.140625 C 277.949219 343.464844 263.9375 316.675781 263.9375 316.675781 Z M 308.0625 332.957031 C 305.261719 327.53125 298.609375 310.199219 298.609375 310.199219 L 277.425781 318.605469 C 277.425781 318.605469 283.734375 332.789062 286.351562 338.914062 C 288.980469 345.042969 284.253906 354.667969 282.855469 357.996094 C 281.453125 361.324219 283.902344 363.421875 286.703125 361.671875 C 289.503906 359.925781 304.734375 349.941406 307.363281 348.019531 C 309.984375 346.089844 310.863281 338.386719 308.0625 332.957031 Z M 279.347656 347.140625 C 280.746094 350.820312 279.699219 354.496094 276.71875 356.066406 C 273.742188 357.644531 254.660156 370.070312 250.632812 372.171875 C 245.144531 375.039062 244.675781 371.121094 247.484375 364.292969 C 249.003906 360.59375 251.28125 355.621094 252.417969 350.96875 C 252.96875 352.449219 253.871094 354.699219 254.839844 356.417969 C 256.417969 359.214844 259.917969 359.046875 262.714844 355.539062 C 264.753906 352.992188 271.976562 344.238281 275.765625 339.660156 C 277.5625 343.238281 278.953125 346.105469 279.347656 347.140625 Z M 306.484375 329.617188 C 302.335938 332.929688 299.324219 340.632812 297.199219 344.34375 C 294.402344 349.242188 289.675781 350.117188 288.445312 347.140625 C 287.558594 344.980469 287.222656 344.027344 287.105469 343.664062 C 286.925781 349.203125 283.917969 355.449219 282.839844 357.996094 C 281.441406 361.324219 283.890625 363.421875 286.6875 361.671875 C 289.488281 359.925781 304.71875 349.941406 307.347656 348.019531 C 309.976562 346.089844 310.847656 338.394531 308.046875 332.964844 C 307.617188 332.101562 307.082031 330.949219 306.484375 329.617188 Z M 297.730469 50.910156 C 297.730469 50.910156 305.894531 44.253906 299.828125 33.636719 C 299.828125 33.636719 304.378906 22.3125 291.660156 17.292969 C 291.660156 17.292969 287.925781 3.519531 273.691406 8.660156 C 273.691406 8.660156 261.316406 0.0234375 254.316406 11.695312 C 254.316406 11.695312 241.945312 8.195312 242.414062 21.382812 C 242.414062 21.382812 231.210938 22.550781 237.394531 36.671875 C 237.394531 36.671875 237.136719 46.390625 246.210938 49.070312 L 238.824219 55.882812 L 235.71875 51.644531 L 234.863281 52.269531 L 241.28125 61.027344 L 242.136719 60.402344 L 239.449219 56.738281 L 247.429688 49.375 C 248.480469 49.589844 249.644531 49.722656 250.929688 49.746094 L 250.929688 45.777344 C 250.929688 45.777344 256.535156 42.628906 258.867188 48.695312 C 261.203125 54.765625 255.25 56.984375 255.25 56.984375 C 255.25 56.984375 253.378906 73.675781 269.722656 71.335938 C 269.722656 71.335938 271.335938 72.445312 273.710938 73.140625 L 262.367188 78.222656 L 259.386719 72.269531 C 259.386719 72.269531 259.296875 72.445312 253.871094 73.496094 C 248.445312 74.546875 246.085938 69.296875 243.804688 65.441406 C 243.804688 65.441406 241.007812 64.742188 239.429688 64.480469 C 238.511719 64.324219 239.019531 62.039062 239.597656 60.15625 C 218.457031 60.734375 194.574219 60.757812 170.972656 59.492188 C 89.742188 55.113281 37.039062 36.035156 37.039062 36.035156 L 37.039062 140.382812 L 238.59375 140.382812 C 245.0625 125.507812 255.425781 101.757812 257.699219 97.132812 C 258.285156 95.941406 259.074219 94.804688 260.011719 93.753906 C 260.71875 88.914062 261.433594 85.929688 261.433594 85.929688 L 259.335938 79.625 L 273.816406 73.167969 C 275.304688 73.585938 277.09375 73.832031 278.953125 73.539062 C 281.46875 75.261719 285.988281 78.335938 292.480469 82.660156 C 298.4375 86.628906 304.011719 92.851562 309.8125 102.085938 L 309.8125 55.984375 C 309.8125 55.984375 305.597656 56.417969 298.234375 57.003906 C 298.453125 55.257812 298.332031 53.238281 297.730469 50.910156 Z M 244.273438 55.753906 C 244.273438 55.078125 243.722656 54.527344 243.046875 54.527344 C 242.367188 54.527344 241.816406 55.078125 241.816406 55.753906 C 241.816406 56.433594 242.367188 56.984375 243.046875 56.984375 C 243.722656 56.984375 244.273438 56.433594 244.273438 55.753906 Z M 250.15625 63.058594 L 249.121094 62.8125 C 248.511719 65.359375 246.449219 65.902344 246.359375 65.925781 L 246.605469 66.953125 C 246.722656 66.921875 249.390625 66.253906 250.15625 63.058594 Z M 76.4375 171.195312 L 97.617188 171.195312 L 97.617188 360.964844 L 76.785156 360.964844 L 76.785156 362.023438 L 120.207031 362.023438 L 120.207031 360.964844 L 98.675781 360.964844 L 98.675781 171.195312 L 120.554688 171.195312 L 120.554688 170.136719 L 76.4375 170.136719 Z M 290.441406 206.023438 C 293.894531 199.324219 290.097656 190.441406 289.933594 190.0625 L 288.964844 190.484375 C 289.003906 190.574219 292.726562 199.285156 289.503906 205.539062 C 287.9375 208.570312 284.984375 210.558594 280.703125 211.464844 C 274.144531 212.851562 265.34375 214.585938 256.023438 216.414062 C 241.832031 219.207031 227.160156 222.097656 218.835938 224.070312 C 211.808594 225.738281 206.683594 229.644531 204.398438 235.082031 C 201.988281 240.820312 203.015625 247.886719 207.296875 254.972656 C 216.066406 269.511719 248.296875 320.765625 248.621094 321.277344 L 249.515625 320.710938 C 249.1875 320.199219 216.96875 268.960938 208.203125 254.421875 C 204.050781 247.527344 203.074219 240.984375 205.375 235.488281 C 207.519531 230.375 212.386719 226.691406 219.074219 225.097656 C 227.382812 223.125 242.042969 220.242188 256.222656 217.449219 C 265.546875 215.621094 274.351562 213.882812 280.917969 212.492188 C 285.519531 211.523438 288.722656 209.351562 290.441406 206.023438 Z M 250.765625 265.3125 L 252.136719 250.5 L 243.984375 250.5 Z M 122.699219 164.988281 L 183.160156 164.988281 L 183.160156 162.007812 L 122.699219 162.007812 Z M 313.632812 220.816406 L 325.550781 226.78125 L 326.027344 225.832031 L 314.109375 219.871094 Z M 340.664062 221.351562 L 337.6875 226.460938 L 338.601562 226.996094 L 341.578125 221.886719 Z M 166.878906 69.4375 C 124.308594 67.703125 87.484375 60.742188 77.21875 58.652344 C 76.40625 58.488281 75.574219 58.6875 74.933594 59.214844 C 74.292969 59.746094 73.929688 60.519531 73.929688 61.351562 L 74.144531 125.96875 C 74.152344 127.480469 75.378906 128.707031 76.890625 128.707031 L 166.773438 128.707031 C 168.285156 128.707031 169.519531 127.472656 169.519531 125.960938 L 169.519531 72.1875 C 169.519531 70.703125 168.359375 69.5 166.878906 69.4375 Z M 168.464844 125.960938 C 168.464844 126.890625 167.703125 127.648438 166.773438 127.648438 L 76.890625 127.648438 C 75.960938 127.648438 75.207031 126.898438 75.199219 125.96875 L 74.984375 61.351562 C 74.984375 60.839844 75.207031 60.363281 75.601562 60.042969 C 75.910156 59.796875 76.28125 59.664062 76.667969 59.664062 C 76.78125 59.664062 76.890625 59.671875 77.003906 59.699219 C 87.300781 61.785156 124.179688 68.761719 166.839844 70.503906 C 167.75 70.539062 168.464844 71.277344 168.464844 72.1875 Z M 210.542969 73.429688 L 210.542969 112.203125 C 210.542969 113.550781 209.449219 114.644531 208.101562 114.644531 L 189.636719 114.644531 C 188.289062 114.644531 187.195312 113.550781 187.195312 112.203125 L 187.195312 73.429688 C 187.195312 72.082031 188.289062 70.988281 189.636719 70.988281 L 208.101562 70.988281 C 209.449219 70.988281 210.542969 72.082031 210.542969 73.429688 Z M 239.019531 73.429688 L 239.019531 112.203125 C 239.019531 113.550781 237.925781 114.644531 236.578125 114.644531 L 218.113281 114.644531 C 216.765625 114.644531 215.671875 113.550781 215.671875 112.203125 L 215.671875 73.429688 C 215.671875 72.082031 216.765625 70.988281 218.113281 70.988281 L 236.578125 70.988281 C 237.933594 70.988281 239.019531 72.082031 239.019531 73.429688 Z M 324.925781 249.328125 L 256.527344 249.328125 C 254.726562 249.328125 253.261719 250.796875 253.261719 252.597656 C 253.261719 254.398438 254.726562 255.867188 256.527344 255.867188 L 265.484375 255.867188 L 258.195312 368.566406 C 258.109375 369.921875 259.128906 371.105469 260.484375 371.21875 C 261.835938 371.328125 263.035156 370.332031 263.171875 368.976562 L 272.074219 280.144531 L 309.707031 280.144531 L 318.613281 368.976562 C 318.746094 370.332031 319.945312 371.328125 321.300781 371.21875 C 322.65625 371.105469 323.675781 369.929688 323.585938 368.566406 L 316.296875 255.867188 L 324.933594 255.867188 C 326.734375 255.867188 328.203125 254.398438 328.203125 252.597656 C 328.195312 250.796875 326.726562 249.328125 324.925781 249.328125 Z M 308.980469 272.90625 L 272.796875 272.90625 L 274.5 255.867188 L 307.265625 255.867188 Z M 106.878906 80.621094 C 94.601562 80.160156 83.554688 77.828125 83.441406 77.808594 L 83.664062 76.773438 C 83.777344 76.792969 94.738281 79.101562 106.917969 79.5625 Z M 106.878906 75.253906 C 94.601562 74.792969 83.554688 72.460938 83.441406 72.4375 L 83.664062 71.402344 C 83.777344 71.425781 94.738281 73.734375 106.917969 74.195312 Z M 83.785156 109.910156 L 106.425781 109.910156 L 106.425781 110.964844 L 83.785156 110.964844 Z M 83.785156 115.507812 L 106.425781 115.507812 L 106.425781 116.566406 L 83.785156 116.566406 Z M 94.363281 86.339844 C 94.550781 86.359375 113 88.898438 132.570312 88.898438 L 132.570312 89.957031 C 112.917969 89.957031 94.402344 87.410156 94.214844 87.382812 Z M 132.800781 96.597656 L 132.816406 97.65625 C 131.746094 97.667969 130.65625 97.675781 129.578125 97.675781 C 112.261719 97.675781 94.429688 96.039062 94.246094 96.023438 L 94.34375 94.96875 C 94.542969 94.988281 114.597656 96.828125 132.800781 96.597656 Z M 94.3125 103.601562 L 132.59375 105.003906 L 132.554688 106.058594 L 94.273438 104.660156 Z M 94.3125 103.601562 " fill-opacity="1" fill-rule="nonzero"/></g><g clip-path="url(#id2)"><path fill="#2244b4" d="M 340.300781 190.269531 L 286.644531 190.269531 L 278.351562 170.496094 L 274.792969 170.496094 L 275.4375 190.96875 L 260.101562 190.96875 C 258.652344 190.96875 257.480469 189.792969 257.503906 188.339844 C 257.550781 184.910156 257.644531 178.394531 257.757812 170.496094 L 121.253906 170.496094 L 121.253906 361.753906 L 139.84375 363.632812 C 143.605469 364.011719 146.464844 367.175781 146.464844 370.949219 L 51.222656 370.949219 L 51.222656 370.921875 C 51.222656 367.152344 54.066406 363.996094 57.808594 363.601562 L 75.738281 361.71875 L 75.738281 170.503906 L 26.355469 170.503906 L 26.355469 165.203125 L 257.824219 165.203125 C 258.113281 144.824219 258.496094 118.515625 258.628906 110.4375 C 258.859375 96.664062 261.429688 85.929688 261.429688 85.929688 L 259.328125 79.625 L 276.601562 71.917969 C 276.601562 71.917969 281.96875 75.65625 292.472656 82.652344 C 302.976562 89.660156 312.3125 103.664062 323.757812 128.871094 C 333.382812 150.082031 340.359375 179.066406 342.332031 187.722656 C 342.628906 189.035156 341.640625 190.269531 340.300781 190.269531 Z M 340.300781 190.269531 " fill-opacity="1" fill-rule="nonzero"/></g><path fill="#993a1c" d="M 227.582031 175.914062 C 218.359375 172.648438 192.21875 162.722656 192.21875 162.722656 C 192.21875 162.722656 187.082031 162.722656 182.414062 161.09375 C 177.746094 159.460938 171.679688 156.074219 171.679688 156.074219 C 171.679688 156.074219 164.675781 160.742188 163.273438 161.679688 C 161.875 162.613281 160.9375 160.75 161.875 159.582031 C 162.804688 158.414062 162.574219 158.882812 167.480469 153.625 C 172.378906 148.378906 179.734375 145.457031 184.054688 145.921875 C 188.371094 146.390625 233.308594 152.574219 233.308594 152.574219 C 233.308594 152.574219 254.347656 103.960938 257.707031 97.132812 C 261.09375 90.246094 271.007812 85 279.296875 89.777344 C 287.582031 94.566406 288.164062 105.417969 282.5625 116.273438 C 276.957031 127.128906 260.734375 160.972656 254.550781 170.777344 C 248.363281 180.582031 236.800781 179.183594 227.582031 175.914062 Z M 239.429688 64.480469 C 241.007812 64.742188 243.804688 65.441406 243.804688 65.441406 C 246.082031 69.289062 248.445312 74.546875 253.871094 73.496094 C 259.296875 72.445312 259.386719 72.269531 259.386719 72.269531 L 262.367188 78.222656 L 274.269531 72.886719 C 274.269531 72.886719 269.453125 65.878906 270.421875 62.910156 C 271.382812 59.929688 272.78125 59.140625 275.410156 53.105469 C 278.039062 47.066406 280.226562 31.835938 267.792969 26.929688 C 255.359375 22.03125 241.886719 29.46875 238.996094 38.042969 C 236.109375 46.621094 240.484375 57.652344 240.484375 57.652344 C 240.484375 57.652344 237.855469 64.21875 239.429688 64.480469 Z M 274.644531 166.46875 L 275.140625 184.492188 L 284.066406 184.492188 L 276.460938 166.074219 C 276.066406 165.105469 274.613281 165.417969 274.644531 166.46875 Z M 263.9375 316.675781 L 241.878906 324.203125 C 241.878906 324.203125 247.65625 335.40625 251.683594 340.835938 C 255.710938 346.261719 250.28125 357.46875 247.484375 364.292969 C 244.683594 371.121094 245.144531 375.039062 250.632812 372.171875 C 254.660156 370.070312 273.742188 357.636719 276.71875 356.066406 C 279.699219 354.488281 280.746094 350.820312 279.347656 347.140625 C 277.949219 343.464844 263.9375 316.675781 263.9375 316.675781 Z M 308.0625 332.957031 C 305.261719 327.53125 298.609375 310.199219 298.609375 310.199219 L 277.425781 318.605469 C 277.425781 318.605469 283.734375 332.789062 286.351562 338.914062 C 288.980469 345.042969 284.253906 354.667969 282.855469 357.996094 C 281.453125 361.324219 283.902344 363.421875 286.703125 361.671875 C 289.503906 359.925781 304.734375 349.941406 307.363281 348.019531 C 309.984375 346.089844 310.863281 338.386719 308.0625 332.957031 Z M 308.0625 332.957031 " fill-opacity="1" fill-rule="nonzero"/><path fill="#202021" d="M 279.347656 347.140625 C 280.746094 350.820312 279.699219 354.496094 276.71875 356.066406 C 273.742188 357.644531 254.660156 370.070312 250.632812 372.171875 C 245.144531 375.039062 244.675781 371.121094 247.484375 364.292969 C 249.003906 360.59375 251.28125 355.621094 252.417969 350.96875 C 252.96875 352.449219 253.871094 354.699219 254.839844 356.417969 C 256.417969 359.214844 259.917969 359.046875 262.714844 355.539062 C 264.753906 352.992188 271.976562 344.238281 275.765625 339.660156 C 277.5625 343.238281 278.953125 346.105469 279.347656 347.140625 Z M 306.484375 329.617188 C 302.335938 332.929688 299.324219 340.632812 297.199219 344.34375 C 294.402344 349.242188 289.675781 350.117188 288.445312 347.140625 C 287.558594 344.980469 287.222656 344.027344 287.105469 343.664062 C 286.925781 349.203125 283.917969 355.449219 282.839844 357.996094 C 281.441406 361.324219 283.890625 363.421875 286.6875 361.671875 C 289.488281 359.925781 304.71875 349.941406 307.347656 348.019531 C 309.976562 346.089844 310.847656 338.394531 308.046875 332.964844 C 307.617188 332.101562 307.082031 330.949219 306.484375 329.617188 Z M 297.730469 50.910156 C 297.730469 50.910156 305.894531 44.253906 299.828125 33.636719 C 299.828125 33.636719 304.378906 22.3125 291.660156 17.292969 C 291.660156 17.292969 287.925781 3.519531 273.691406 8.660156 C 273.691406 8.660156 261.316406 0.0234375 254.316406 11.695312 C 254.316406 11.695312 241.945312 8.195312 242.414062 21.382812 C 242.414062 21.382812 231.210938 22.550781 237.394531 36.671875 C 237.394531 36.671875 237.136719 46.390625 246.210938 49.070312 L 238.824219 55.882812 L 235.71875 51.644531 L 234.863281 52.269531 L 241.28125 61.027344 L 242.136719 60.402344 L 239.449219 56.738281 L 247.429688 49.375 C 248.480469 49.589844 249.644531 49.722656 250.929688 49.746094 L 250.929688 45.777344 C 250.929688 45.777344 256.535156 42.628906 258.867188 48.695312 C 261.203125 54.765625 255.25 56.984375 255.25 56.984375 C 255.25 56.984375 253.378906 73.675781 269.722656 71.335938 C 269.722656 71.335938 271.335938 72.445312 273.710938 73.140625 L 262.367188 78.222656 L 259.386719 72.269531 C 259.386719 72.269531 259.296875 72.445312 253.871094 73.496094 C 248.445312 74.546875 246.085938 69.296875 243.804688 65.441406 C 243.804688 65.441406 241.007812 64.742188 239.429688 64.480469 C 238.511719 64.324219 239.019531 62.039062 239.597656 60.15625 C 218.457031 60.734375 194.574219 60.757812 170.972656 59.492188 C 89.742188 55.113281 37.039062 36.035156 37.039062 36.035156 L 37.039062 140.382812 L 238.59375 140.382812 C 245.0625 125.507812 255.425781 101.757812 257.699219 97.132812 C 258.285156 95.941406 259.074219 94.804688 260.011719 93.753906 C 260.71875 88.914062 261.433594 85.929688 261.433594 85.929688 L 259.335938 79.625 L 273.816406 73.167969 C 275.304688 73.585938 277.09375 73.832031 278.953125 73.539062 C 281.46875 75.261719 285.988281 78.335938 292.480469 82.660156 C 298.4375 86.628906 304.011719 92.851562 309.8125 102.085938 L 309.8125 55.984375 C 309.8125 55.984375 305.597656 56.417969 298.234375 57.003906 C 298.453125 55.257812 298.332031 53.238281 297.730469 50.910156 Z M 244.273438 55.753906 C 244.273438 55.078125 243.722656 54.527344 243.046875 54.527344 C 242.367188 54.527344 241.816406 55.078125 241.816406 55.753906 C 241.816406 56.433594 242.367188 56.984375 243.046875 56.984375 C 243.722656 56.984375 244.273438 56.433594 244.273438 55.753906 Z M 250.15625 63.058594 L 249.121094 62.8125 C 248.511719 65.359375 246.449219 65.902344 246.359375 65.925781 L 246.605469 66.953125 C 246.722656 66.921875 249.390625 66.253906 250.15625 63.058594 Z M 76.4375 171.195312 L 97.617188 171.195312 L 97.617188 360.964844 L 76.785156 360.964844 L 76.785156 362.023438 L 120.207031 362.023438 L 120.207031 360.964844 L 98.675781 360.964844 L 98.675781 171.195312 L 120.554688 171.195312 L 120.554688 170.136719 L 76.4375 170.136719 Z M 290.441406 206.023438 C 293.894531 199.324219 290.097656 190.441406 289.933594 190.0625 L 288.964844 190.484375 C 289.003906 190.574219 292.726562 199.285156 289.503906 205.539062 C 287.9375 208.570312 284.984375 210.558594 280.703125 211.464844 C 274.144531 212.851562 265.34375 214.585938 256.023438 216.414062 C 241.832031 219.207031 227.160156 222.097656 218.835938 224.070312 C 211.808594 225.738281 206.683594 229.644531 204.398438 235.082031 C 201.988281 240.820312 203.015625 247.886719 207.296875 254.972656 C 216.066406 269.511719 248.296875 320.765625 248.621094 321.277344 L 249.515625 320.710938 C 249.1875 320.199219 216.96875 268.960938 208.203125 254.421875 C 204.050781 247.527344 203.074219 240.984375 205.375 235.488281 C 207.519531 230.375 212.386719 226.691406 219.074219 225.097656 C 227.382812 223.125 242.042969 220.242188 256.222656 217.449219 C 265.546875 215.621094 274.351562 213.882812 280.917969 212.492188 C 285.519531 211.523438 288.722656 209.351562 290.441406 206.023438 Z M 250.765625 265.3125 L 252.136719 250.5 L 243.984375 250.5 Z M 122.699219 164.988281 L 183.160156 164.988281 L 183.160156 162.007812 L 122.699219 162.007812 Z M 313.632812 220.816406 L 325.550781 226.78125 L 326.027344 225.832031 L 314.109375 219.871094 Z M 340.664062 221.351562 L 337.6875 226.460938 L 338.601562 226.996094 L 341.578125 221.886719 Z M 340.664062 221.351562 " fill-opacity="1" fill-rule="nonzero"/><path fill="#f6f264" d="M 166.878906 69.4375 C 124.308594 67.703125 87.484375 60.742188 77.21875 58.652344 C 76.40625 58.488281 75.574219 58.6875 74.933594 59.214844 C 74.292969 59.746094 73.929688 60.519531 73.929688 61.351562 L 74.144531 125.96875 C 74.152344 127.480469 75.378906 128.707031 76.890625 128.707031 L 166.773438 128.707031 C 168.285156 128.707031 169.519531 127.472656 169.519531 125.960938 L 169.519531 72.1875 C 169.519531 70.703125 168.359375 69.5 166.878906 69.4375 Z M 168.464844 125.960938 C 168.464844 126.890625 167.703125 127.648438 166.773438 127.648438 L 76.890625 127.648438 C 75.960938 127.648438 75.207031 126.898438 75.199219 125.96875 L 74.984375 61.351562 C 74.984375 60.839844 75.207031 60.363281 75.601562 60.042969 C 75.910156 59.796875 76.28125 59.664062 76.667969 59.664062 C 76.78125 59.664062 76.890625 59.671875 77.003906 59.699219 C 87.300781 61.785156 124.179688 68.761719 166.839844 70.503906 C 167.75 70.539062 168.464844 71.277344 168.464844 72.1875 Z M 210.542969 73.429688 L 210.542969 112.203125 C 210.542969 113.550781 209.449219 114.644531 208.101562 114.644531 L 189.636719 114.644531 C 188.289062 114.644531 187.195312 113.550781 187.195312 112.203125 L 187.195312 73.429688 C 187.195312 72.082031 188.289062 70.988281 189.636719 70.988281 L 208.101562 70.988281 C 209.449219 70.988281 210.542969 72.082031 210.542969 73.429688 Z M 239.019531 73.429688 L 239.019531 112.203125 C 239.019531 113.550781 237.925781 114.644531 236.578125 114.644531 L 218.113281 114.644531 C 216.765625 114.644531 215.671875 113.550781 215.671875 112.203125 L 215.671875 73.429688 C 215.671875 72.082031 216.765625 70.988281 218.113281 70.988281 L 236.578125 70.988281 C 237.933594 70.988281 239.019531 72.082031 239.019531 73.429688 Z M 324.925781 249.328125 L 256.527344 249.328125 C 254.726562 249.328125 253.261719 250.796875 253.261719 252.597656 C 253.261719 254.398438 254.726562 255.867188 256.527344 255.867188 L 265.484375 255.867188 L 258.195312 368.566406 C 258.109375 369.921875 259.128906 371.105469 260.484375 371.21875 C 261.835938 371.328125 263.035156 370.332031 263.171875 368.976562 L 272.074219 280.144531 L 309.707031 280.144531 L 318.613281 368.976562 C 318.746094 370.332031 319.945312 371.328125 321.300781 371.21875 C 322.65625 371.105469 323.675781 369.929688 323.585938 368.566406 L 316.296875 255.867188 L 324.933594 255.867188 C 326.734375 255.867188 328.203125 254.398438 328.203125 252.597656 C 328.195312 250.796875 326.726562 249.328125 324.925781 249.328125 Z M 308.980469 272.90625 L 272.796875 272.90625 L 274.5 255.867188 L 307.265625 255.867188 Z M 106.878906 80.621094 C 94.601562 80.160156 83.554688 77.828125 83.441406 77.808594 L 83.664062 76.773438 C 83.777344 76.792969 94.738281 79.101562 106.917969 79.5625 Z M 106.878906 75.253906 C 94.601562 74.792969 83.554688 72.460938 83.441406 72.4375 L 83.664062 71.402344 C 83.777344 71.425781 94.738281 73.734375 106.917969 74.195312 Z M 83.785156 109.910156 L 106.425781 109.910156 L 106.425781 110.964844 L 83.785156 110.964844 Z M 83.785156 115.507812 L 106.425781 115.507812 L 106.425781 116.566406 L 83.785156 116.566406 Z M 94.363281 86.339844 C 94.550781 86.359375 113 88.898438 132.570312 88.898438 L 132.570312 89.957031 C 112.917969 89.957031 94.402344 87.410156 94.214844 87.382812 Z M 132.800781 96.597656 L 132.816406 97.65625 C 131.746094 97.667969 130.65625 97.675781 129.578125 97.675781 C 112.261719 97.675781 94.429688 96.039062 94.246094 96.023438 L 94.34375 94.96875 C 94.542969 94.988281 114.597656 96.828125 132.800781 96.597656 Z M 94.3125 103.601562 L 132.59375 105.003906 L 132.554688 106.058594 L 94.273438 104.660156 Z M 94.3125 103.601562 " fill-opacity="1" fill-rule="nonzero"/></svg>