<svg xmlns="http://www.w3.org/2000/svg" xmlns:xlink="http://www.w3.org/1999/xlink" width="500" zoomAndPan="magnify" viewBox="0 0 375 374.999991" height="500" preserveAspectRatio="xMidYMid meet" version="1.0"><rect x="-37.5" width="450" fill="#ffffff" y="-37.499999" height="449.999989" fill-opacity="1"/><rect x="-37.5" width="450" fill="#ffffff" y="-37.499999" height="449.999989" fill-opacity="1"/><rect x="-37.5" width="450" fill="#ffffff" y="-37.499999" height="449.999989" fill-opacity="1"/><rect x="-37.5" width="450" fill="#ffffff" y="-37.499999" height="449.999989" fill-opacity="1"/><path stroke-linecap="round" transform="matrix(4.601227, 0, 0, 4.601227, -42.791407, -42.791412)" fill-opacity="1" fill="#fadf7e" fill-rule="nonzero" stroke-linejoin="round" d="M 32.642109 18.235287 L 32.648901 18.235287 L 31.050312 15.03811 C 30.794776 14.531282 30.126646 14.117839 29.558692 14.117839 L 19.265072 14.117839 C 18.699666 14.117839 18.02814 14.531282 17.776848 15.03811 L 16.17826 18.235287 L 16.180807 18.235287 L 10.00039 18.235287 L 10.00039 79.997856 L 20.305046 79.997856 C 19.613145 78.390778 17.844765 77.569835 16.187598 78.018085 C 16.095062 77.367783 16.029692 76.704747 16.029692 76.028127 C 16.029692 75.348111 16.095062 74.690168 16.187598 74.039866 C 17.859197 74.490663 19.643708 73.656986 20.32627 72.016798 C 21.002041 70.384252 20.329666 68.530976 18.831255 67.672679 C 19.630974 66.602991 20.574166 65.657251 21.644703 64.859231 C 22.503 66.356793 24.35288 67.029168 25.993067 66.35085 C 27.629859 65.670835 28.46014 63.888022 28.012739 62.215574 C 28.667286 62.123887 29.326078 62.061913 30.000151 62.061913 C 30.679317 62.061913 31.33726 62.124736 31.990958 62.215574 C 31.536765 63.888022 32.369594 65.670835 34.01063 66.35085 C 35.650818 67.029168 37.499849 66.356793 38.362391 64.854986 C 39.43038 65.656403 40.377818 66.602991 41.176688 67.672679 C 39.678276 68.530127 39.005901 70.378309 39.680823 72.016798 C 40.35999 73.65359 42.147896 74.492361 43.816099 74.039866 C 43.906089 74.690168 43.974005 75.34896 43.974005 76.028127 C 43.974005 76.705595 43.906089 77.367783 43.816099 78.018085 C 42.158932 77.570684 40.394797 78.383137 39.702896 79.997856 L 56.94524 79.997856 L 56.94524 40.415173 C 56.94524 37.675584 59.164417 35.457256 61.898912 35.457256 L 80.002949 35.457256 L 80.002949 18.235287 Z M 32.642109 18.235287 " stroke="#335c5f" stroke-width="1.5" stroke-opacity="1" stroke-miterlimit="10"/><path fill="#d8c26f" d="M 313.816406 41.113281 L 313.816406 108.851562 L 242.011719 108.851562 C 223.105469 108.851562 207.71875 124.246094 207.71875 143.167969 L 207.71875 325.296875 L 219.214844 325.296875 L 219.214844 143.167969 C 219.214844 130.5625 229.425781 120.355469 242.011719 120.355469 L 325.3125 120.355469 L 325.3125 41.113281 Z M 313.816406 41.113281 " fill-opacity="1" fill-rule="nonzero"/><path stroke-linecap="round" transform="matrix(4.601227, 0, 0, 4.601227, -42.791407, -42.791412)" fill-opacity="1" fill="#e9eaef" fill-rule="nonzero" stroke-linejoin="round" d="M 90.000282 40.415173 C 90.000282 37.675584 87.77686 35.457256 85.03897 35.457256 L 61.897214 35.457256 C 59.16187 35.457256 56.942693 37.675584 56.942693 40.415173 L 56.942693 85.03982 C 56.942693 87.781955 59.166115 90.001132 61.897214 90.001132 L 85.03897 90.001132 C 87.77686 90.000283 90.000282 87.781106 90.000282 85.038971 Z M 90.000282 40.415173 " stroke="#335c5f" stroke-width="1.5" stroke-opacity="1" stroke-miterlimit="10"/><path stroke-linecap="round" transform="matrix(4.601227, 0, 0, 4.601227, -42.791407, -42.791412)" fill-opacity="1" fill="#46c6f1" fill-rule="nonzero" stroke-linejoin="round" d="M 60.485396 43.014683 L 86.457579 43.014683 L 86.457579 80.795028 L 60.485396 80.795028 Z M 60.485396 43.014683 " stroke="#335c5f" stroke-width="1.5" stroke-opacity="1" stroke-miterlimit="10"/><path fill="#3eaed3" d="M 343.523438 155.128906 L 355.019531 155.128906 L 355.019531 328.964844 L 343.523438 328.964844 Z M 343.523438 155.128906 " fill-opacity="1" fill-rule="nonzero"/><path stroke-linecap="round" transform="matrix(4.601227, 0, 0, 4.601227, -42.791407, -42.791412)" fill-opacity="1" fill="#e9eaef" fill-rule="nonzero" stroke-linejoin="round" d="M 10.00039 10.000391 L 10.00039 18.235287 L 16.17826 18.235287 L 17.776848 15.03811 C 18.02814 14.531282 18.699666 14.117839 19.265072 14.117839 L 29.558692 14.117839 C 30.126646 14.117839 30.794776 14.531282 31.050312 15.03811 L 32.648901 18.235287 L 80.002949 18.235287 L 80.002949 10.000391 Z M 10.00039 10.000391 " stroke="#335c5f" stroke-width="1.5" stroke-opacity="1" stroke-miterlimit="10"/><path fill="#caccd1" d="M 313.816406 3.222656 L 325.316406 3.222656 L 325.316406 41.113281 L 313.816406 41.113281 Z M 313.816406 3.222656 " fill-opacity="1" fill-rule="nonzero"/><path stroke-linecap="round" transform="matrix(4.601227, 0, 0, 4.601227, -42.791407, -42.791412)" fill-opacity="1" fill="#9dd1d9" fill-rule="nonzero" stroke-linejoin="round" d="M 14.999057 24.999787 L 23.235651 24.999787 L 23.235651 28.088298 L 14.999057 28.088298 Z M 14.999057 24.999787 " stroke="#335c5f" stroke-width="1.5" stroke-opacity="1" stroke-miterlimit="10"/><path stroke-linecap="round" transform="matrix(4.601227, 0, 0, 4.601227, -42.791407, -42.791412)" fill-opacity="1" fill="#9dd1d9" fill-rule="nonzero" stroke-linejoin="round" d="M 27.353948 24.999787 L 43.822042 24.999787 L 43.822042 28.088298 L 27.353948 28.088298 Z M 27.353948 24.999787 " stroke="#335c5f" stroke-width="1.5" stroke-opacity="1" stroke-miterlimit="10"/><path stroke-linecap="round" transform="matrix(4.601227, 0, 0, 4.601227, -42.791407, -42.791412)" fill-opacity="1" fill="#9dd1d9" fill-rule="nonzero" stroke-linejoin="round" d="M 23.235651 31.174261 L 39.703745 31.174261 L 39.703745 34.265319 L 23.235651 34.265319 Z M 23.235651 31.174261 " stroke="#335c5f" stroke-width="1.5" stroke-opacity="1" stroke-miterlimit="10"/><path stroke-linecap="round" transform="matrix(4.601227, 0, 0, 4.601227, -42.791407, -42.791412)" fill-opacity="1" fill="#9dd1d9" fill-rule="nonzero" stroke-linejoin="round" d="M 43.82374 31.174261 L 56.176084 31.174261 L 56.176084 34.265319 L 43.82374 34.265319 Z M 43.82374 31.174261 " stroke="#335c5f" stroke-width="1.5" stroke-opacity="1" stroke-miterlimit="10"/><path stroke-linecap="round" transform="matrix(4.601227, 0, 0, 4.601227, -42.791407, -42.791412)" fill-opacity="1" fill="#9dd1d9" fill-rule="nonzero" stroke-linejoin="round" d="M 23.235651 37.352131 L 27.353099 37.352131 L 27.353099 40.44234 L 23.235651 40.44234 Z M 23.235651 37.352131 " stroke="#335c5f" stroke-width="1.5" stroke-opacity="1" stroke-miterlimit="10"/><path stroke-linecap="round" transform="matrix(4.601227, 0, 0, 4.601227, -42.791407, -42.791412)" fill-opacity="1" fill="#9dd1d9" fill-rule="nonzero" stroke-linejoin="round" d="M 31.471396 37.352131 L 52.058636 37.352131 L 52.058636 40.44234 L 31.471396 40.44234 Z M 31.471396 37.352131 " stroke="#335c5f" stroke-width="1.5" stroke-opacity="1" stroke-miterlimit="10"/><path stroke-linecap="round" transform="matrix(4.601227, 0, 0, 4.601227, -42.791407, -42.791412)" fill-opacity="1" fill="#9dd1d9" fill-rule="nonzero" stroke-linejoin="round" d="M 23.235651 43.529152 L 35.587146 43.529152 L 35.587146 46.61936 L 23.235651 46.61936 Z M 23.235651 43.529152 " stroke="#335c5f" stroke-width="1.5" stroke-opacity="1" stroke-miterlimit="10"/><path stroke-linecap="round" transform="matrix(4.601227, 0, 0, 4.601227, -42.791407, -42.791412)" fill-opacity="1" fill="#9dd1d9" fill-rule="nonzero" stroke-linejoin="round" d="M 14.999057 49.706173 L 19.115656 49.706173 L 19.115656 52.794684 L 14.999057 52.794684 Z M 14.999057 49.706173 " stroke="#335c5f" stroke-width="1.5" stroke-opacity="1" stroke-miterlimit="10"/><path stroke-linecap="round" transform="matrix(4.601227, 0, 0, 4.601227, -42.791407, -42.791412)" fill-opacity="1" fill="#9dd1d9" fill-rule="nonzero" stroke-linejoin="round" d="M 23.235651 49.706173 L 43.82374 49.706173 L 43.82374 52.794684 L 23.235651 52.794684 Z M 23.235651 49.706173 " stroke="#335c5f" stroke-width="1.5" stroke-opacity="1" stroke-miterlimit="10"/><path stroke-linecap="round" transform="matrix(4.601227, 0, 0, 4.601227, -42.791407, -42.791412)" fill-opacity="1" fill="#9dd1d9" fill-rule="nonzero" stroke-linejoin="round" d="M 47.941188 49.706173 L 52.057787 49.706173 L 52.057787 52.794684 L 47.941188 52.794684 Z M 47.941188 49.706173 " stroke="#335c5f" stroke-width="1.5" stroke-opacity="1" stroke-miterlimit="10"/><path fill="#89b7bf" d="M 185.242188 185.917969 L 196.742188 185.917969 L 196.742188 200.128906 L 185.242188 200.128906 Z M 185.242188 185.917969 " fill-opacity="1" fill-rule="nonzero"/><path fill="#89b7bf" d="M 147.351562 185.917969 L 158.851562 185.917969 L 158.851562 200.128906 L 147.351562 200.128906 Z M 147.351562 185.917969 " fill-opacity="1" fill-rule="nonzero"/><path fill="#89b7bf" d="M 33.664062 185.917969 L 45.164062 185.917969 L 45.164062 200.128906 L 33.664062 200.128906 Z M 33.664062 185.917969 " fill-opacity="1" fill-rule="nonzero"/><path fill="#89b7bf" d="M 71.566406 129.074219 L 83.070312 129.074219 L 83.070312 143.28125 L 71.566406 143.28125 Z M 71.566406 129.074219 " fill-opacity="1" fill-rule="nonzero"/><path fill="#89b7bf" d="M 128.394531 100.648438 L 139.894531 100.648438 L 139.894531 114.859375 L 128.394531 114.859375 Z M 128.394531 100.648438 " fill-opacity="1" fill-rule="nonzero"/><path fill="#89b7bf" d="M 52.621094 72.238281 L 64.121094 72.238281 L 64.121094 86.449219 L 52.621094 86.449219 Z M 52.621094 72.238281 " fill-opacity="1" fill-rule="nonzero"/><path fill="#89b7bf" d="M 147.335938 72.238281 L 158.839844 72.238281 L 158.839844 86.449219 L 147.335938 86.449219 Z M 147.335938 72.238281 " fill-opacity="1" fill-rule="nonzero"/><path fill="#89b7bf" d="M 204.183594 100.648438 L 215.6875 100.648438 L 215.6875 114.859375 L 204.183594 114.859375 Z M 204.183594 100.648438 " fill-opacity="1" fill-rule="nonzero"/><path fill="#89b7bf" d="M 185.242188 129.074219 L 196.742188 129.074219 L 196.742188 143.28125 L 185.242188 143.28125 Z M 185.242188 129.074219 " fill-opacity="1" fill-rule="nonzero"/><path stroke-linecap="round" transform="matrix(4.601227, 0, 0, 4.601227, -42.791407, -42.791412)" fill-opacity="1" fill="#fadf7e" fill-rule="nonzero" stroke-linejoin="round" d="M 74.33785 12.571037 L 77.428907 12.571037 L 77.428907 15.662094 L 74.33785 15.662094 Z M 74.33785 12.571037 " stroke="#335c5f" stroke-width="1.5" stroke-opacity="1" stroke-miterlimit="10"/><path stroke-linecap="round" transform="matrix(4.601227, 0, 0, 4.601227, -42.791407, -42.791412)" fill-opacity="1" fill="#fadf7e" fill-rule="nonzero" stroke-linejoin="round" d="M 69.190615 12.571037 L 72.280824 12.571037 L 72.280824 15.662094 L 69.190615 15.662094 Z M 69.190615 12.571037 " stroke="#335c5f" stroke-width="1.5" stroke-opacity="1" stroke-miterlimit="10"/><path stroke-linecap="round" transform="matrix(4.601227, 0, 0, 4.601227, -42.791407, -42.791412)" fill-opacity="1" fill="#fadf7e" fill-rule="nonzero" stroke-linejoin="round" d="M 64.047625 12.571037 L 67.135287 12.571037 L 67.135287 15.662094 L 64.047625 15.662094 Z M 64.047625 12.571037 " stroke="#335c5f" stroke-width="1.5" stroke-opacity="1" stroke-miterlimit="10"/><path stroke-linecap="round" transform="matrix(4.601227, 0, 0, 4.601227, -42.791407, -42.791412)" fill-opacity="1" fill="#70929f" fill-rule="nonzero" stroke-linejoin="round" d="M 41.343932 15.03811 C 41.089245 14.531282 40.421115 14.117839 39.855708 14.117839 L 29.558692 14.117839 C 30.126646 14.117839 30.794776 14.531282 31.050312 15.03811 L 32.648901 18.235287 L 42.939974 18.235287 Z M 41.343932 15.03811 " stroke="#335c5f" stroke-width="1.5" stroke-opacity="1" stroke-miterlimit="10"/><path fill="#62818c" d="M 110.472656 22.167969 L 93.214844 22.167969 C 95.828125 22.167969 98.902344 24.070312 100.078125 26.402344 L 107.433594 41.113281 L 124.6875 41.113281 L 117.332031 26.402344 C 116.15625 24.070312 113.085938 22.167969 110.472656 22.167969 Z M 110.472656 22.167969 " fill-opacity="1" fill-rule="nonzero"/><path stroke-linecap="round" transform="matrix(4.601227, 0, 0, 4.601227, -42.791407, -42.791412)" fill="none" stroke-linejoin="round" d="M 75.950022 38.761402 L 70.992954 38.761402 Z M 75.950022 38.761402 " stroke="#335c5f" stroke-width="1.5" stroke-opacity="1" stroke-miterlimit="10"/><path stroke-linecap="round" transform="matrix(4.601227, 0, 0, 4.601227, -42.791407, -42.791412)" fill="none" stroke-linejoin="round" d="M 80.085298 38.761402 L 78.430678 38.761402 Z M 80.085298 38.761402 " stroke="#335c5f" stroke-width="1.5" stroke-opacity="1" stroke-miterlimit="10"/><path stroke-linecap="round" transform="matrix(4.601227, 0, 0, 4.601227, -42.791407, -42.791412)" fill="none" stroke-linejoin="round" d="M 75.536579 85.394684 C 75.536579 86.532288 74.612912 87.461049 73.47361 87.461049 C 72.33261 87.461049 71.407245 86.53059 71.407245 85.394684 C 71.407245 84.253684 72.334308 83.326622 73.47361 83.326622 C 74.612912 83.325773 75.536579 84.253684 75.536579 85.394684 Z M 75.536579 85.394684 " stroke="#335c5f" stroke-width="1.5" stroke-opacity="1" stroke-miterlimit="10"/><path stroke-linecap="round" transform="matrix(4.601227, 0, 0, 4.601227, -42.791407, -42.791412)" fill-opacity="1" fill="#9dd1d9" fill-rule="nonzero" stroke-linejoin="round" d="M 64.72 55.029142 L 82.221277 55.029142 L 82.221277 60.028658 L 64.72 60.028658 Z M 64.72 55.029142 " stroke="#335c5f" stroke-width="1.5" stroke-opacity="1" stroke-miterlimit="10"/><path stroke-linecap="round" transform="matrix(4.601227, 0, 0, 4.601227, -42.791407, -42.791412)" fill-opacity="1" fill="#9dd1d9" fill-rule="nonzero" stroke-linejoin="round" d="M 64.72 63.779356 L 82.221277 63.779356 L 82.221277 68.781418 L 64.72 68.781418 Z M 64.72 63.779356 " stroke="#335c5f" stroke-width="1.5" stroke-opacity="1" stroke-miterlimit="10"/><path fill="#89b7bf" d="M 324.023438 210.410156 L 335.527344 210.410156 L 335.527344 233.414062 L 324.023438 233.414062 Z M 324.023438 210.410156 " fill-opacity="1" fill-rule="nonzero"/><path fill="#89b7bf" d="M 324.023438 250.671875 L 335.527344 250.671875 L 335.527344 273.6875 L 324.023438 273.6875 Z M 324.023438 250.671875 " fill-opacity="1" fill-rule="nonzero"/><path stroke-linecap="round" transform="matrix(4.601227, 0, 0, 4.601227, -42.791407, -42.791412)" fill-opacity="1" fill="#9dd1d9" fill-rule="nonzero" stroke-linejoin="round" d="M 39.703745 43.529152 L 56.942693 43.529152 L 56.942693 46.61936 L 39.703745 46.61936 Z M 39.703745 43.529152 " stroke="#335c5f" stroke-width="1.5" stroke-opacity="1" stroke-miterlimit="10"/><path fill="#89b7bf" d="M 207.71875 157.496094 L 219.214844 157.496094 L 219.214844 171.714844 L 207.71875 171.714844 Z M 207.71875 157.496094 " fill-opacity="1" fill-rule="nonzero"/><path fill="#89b7bf" d="M 109.449219 157.496094 L 120.953125 157.496094 L 120.953125 171.714844 L 109.449219 171.714844 Z M 109.449219 157.496094 " fill-opacity="1" fill-rule="nonzero"/><path fill="#d8c26f" d="M 168.417969 283.355469 L 155.796875 286.769531 C 155.410156 286.878906 155.011719 286.933594 154.605469 286.933594 C 153.199219 286.933594 151.25 286.207031 150.421875 284.191406 C 149.5625 282.113281 150.40625 279.695312 152.378906 278.5625 L 163.652344 272.113281 L 155.886719 261.703125 C 151.558594 255.898438 146.410156 250.75 140.605469 246.398438 L 130.199219 238.621094 L 123.742188 249.898438 C 122.914062 251.328125 121.402344 252.214844 119.789062 252.214844 C 119.214844 252.214844 118.644531 252.101562 118.101562 251.867188 C 116.023438 251 114.910156 248.695312 115.507812 246.492188 L 118.933594 233.921875 L 106.027344 232.089844 C 102.054688 231.523438 98.628906 231.261719 95.246094 231.261719 C 91.914062 231.261719 88.398438 231.535156 84.480469 232.089844 L 71.628906 233.914062 L 74.984375 246.460938 C 75.578125 248.6875 74.472656 251.015625 72.410156 251.871094 C 71.851562 252.105469 71.28125 252.222656 70.707031 252.222656 C 69.09375 252.222656 67.59375 251.34375 66.777344 249.921875 L 60.328125 238.652344 L 49.917969 246.417969 C 44.105469 250.75 38.964844 255.902344 34.628906 261.714844 L 26.863281 272.121094 L 38.128906 278.570312 C 40.109375 279.703125 40.945312 282.113281 40.109375 284.164062 C 39.25 286.210938 37.308594 286.941406 35.898438 286.941406 C 35.492188 286.941406 35.078125 286.886719 34.683594 286.78125 L 22.136719 283.394531 L 20.300781 296.265625 C 19.722656 300.300781 19.453125 303.722656 19.453125 307.039062 C 19.453125 310.367188 19.722656 313.789062 20.300781 317.824219 L 21.367188 325.3125 L 50.628906 325.3125 C 47.441406 317.917969 39.308594 314.140625 31.683594 316.199219 C 31.257812 313.210938 30.957031 310.160156 30.957031 307.042969 C 30.957031 303.914062 31.257812 300.886719 31.683594 297.898438 C 39.371094 299.972656 47.585938 296.136719 50.722656 288.589844 C 53.835938 281.074219 50.742188 272.550781 43.84375 268.601562 C 47.527344 263.679688 51.863281 259.324219 56.792969 255.652344 C 60.742188 262.546875 69.253906 265.636719 76.800781 262.519531 C 84.332031 259.390625 88.148438 251.183594 86.09375 243.492188 C 89.101562 243.070312 92.136719 242.785156 95.234375 242.785156 C 98.359375 242.785156 101.386719 243.074219 104.398438 243.492188 C 102.308594 251.183594 106.140625 259.390625 113.691406 262.519531 C 121.238281 265.636719 129.746094 262.546875 133.710938 255.636719 C 138.625 259.320312 142.988281 263.679688 146.664062 268.601562 C 139.765625 272.542969 136.675781 281.046875 139.78125 288.589844 C 142.90625 296.121094 151.132812 299.976562 158.808594 297.898438 C 159.222656 300.886719 159.535156 303.921875 159.535156 307.042969 C 159.535156 310.164062 159.222656 313.210938 158.808594 316.199219 C 151.183594 314.144531 143.066406 317.878906 139.882812 325.3125 L 169.160156 325.3125 L 170.199219 317.769531 C 170.59375 314.941406 171.042969 311.152344 171.042969 307.039062 C 171.042969 302.929688 170.59375 299.15625 170.199219 296.320312 Z M 168.417969 283.355469 " fill-opacity="1" fill-rule="nonzero"/><path stroke-linecap="round" transform="matrix(4.601227, 0, 0, 4.601227, -42.791407, -42.791412)" fill-opacity="1" fill="#46c6f1" fill-rule="nonzero" stroke-linejoin="round" d="M 43.814401 74.039017 C 42.146198 74.489814 40.358292 73.651892 39.679125 72.01595 C 39.004203 70.376611 39.675729 68.530127 41.17499 67.67183 C 40.375271 66.602142 39.427833 65.653856 38.359844 64.854137 C 37.499 66.355944 35.64912 67.028319 34.008932 66.350002 C 32.367896 65.669986 31.535068 63.887173 31.98926 62.214725 C 31.334713 62.123038 30.675922 62.061064 29.997604 62.061064 C 29.322682 62.061064 28.664739 62.123887 28.011041 62.214725 C 28.457593 63.887173 27.628161 65.669986 25.991369 66.350002 C 24.351182 67.028319 22.502151 66.355944 21.643005 64.858382 C 20.571619 65.657251 19.628427 66.602142 18.828708 67.67183 C 20.327968 68.529278 21.000343 70.383403 20.323724 72.01595 C 19.64201 73.656986 17.856651 74.490663 16.185901 74.039017 C 16.093364 74.689319 16.027994 75.348111 16.027994 76.027278 C 16.027994 76.704747 16.093364 77.366934 16.185901 78.017236 C 17.856651 77.56559 19.64201 78.400116 20.323724 80.036908 C 21.000343 81.679642 20.327968 83.526976 18.828708 84.388669 C 19.629276 85.45496 20.571619 86.4007 21.643005 87.200419 C 22.501302 85.703705 24.351182 85.029632 25.991369 85.70795 C 27.628161 86.389663 28.457593 88.170778 28.011041 89.843226 C 28.665588 89.932367 29.32438 90.000283 29.999302 90.000283 C 30.67762 90.000283 31.339807 89.932367 31.990109 89.842377 C 31.539312 88.169929 32.372989 86.388814 34.012328 85.707101 C 35.64912 85.028783 37.498151 85.702856 38.359844 87.198721 C 39.431229 86.399851 40.37612 85.453262 41.17499 84.38782 C 39.675729 83.519335 39.004203 81.672851 39.679125 80.036059 C 40.361687 78.390778 42.146198 77.564741 43.814401 78.016387 C 43.904391 77.366085 43.972307 76.703049 43.972307 76.026429 C 43.973156 75.348111 43.904391 74.689319 43.814401 74.039017 Z M 29.999302 82.43182 C 26.460843 82.43182 23.599005 79.564887 23.599005 76.028127 C 23.599005 72.493064 26.460843 69.630377 29.999302 69.630377 C 33.541156 69.630377 36.403844 72.493064 36.403844 76.028127 C 36.403844 79.564038 33.541156 82.43182 29.999302 82.43182 Z M 29.999302 82.43182 " stroke="#335c5f" stroke-width="1.5" stroke-opacity="1" stroke-miterlimit="10"/><path stroke-linecap="round" transform="matrix(4.601227, 0, 0, 4.601227, -42.791407, -42.791412)" fill="none" stroke-linejoin="round" d="M 41.343932 15.03811 C 41.089245 14.531282 40.421115 14.117839 39.855708 14.117839 L 29.558692 14.117839 C 30.126646 14.117839 30.794776 14.531282 31.050312 15.03811 L 32.648901 18.235287 L 42.939974 18.235287 Z M 41.343932 15.03811 " stroke="#335c5f" stroke-width="1.5" stroke-opacity="1" stroke-miterlimit="10"/><path stroke-linecap="round" transform="matrix(4.601227, 0, 0, 4.601227, -42.791407, -42.791412)" fill-opacity="1" fill="#9dd1d9" fill-rule="nonzero" stroke-linejoin="round" d="M 45.690599 68.23384 L 56.942693 68.23384 L 56.942693 71.324048 L 45.690599 71.324048 Z M 45.690599 68.23384 " stroke="#335c5f" stroke-width="1.5" stroke-opacity="1" stroke-miterlimit="10"/><path stroke-linecap="round" transform="matrix(4.601227, 0, 0, 4.601227, -42.791407, -42.791412)" fill-opacity="1" fill="#9dd1d9" fill-rule="nonzero" stroke-linejoin="round" d="M 45.690599 62.059366 L 56.942693 62.059366 L 56.942693 65.147028 L 45.690599 65.147028 Z M 45.690599 62.059366 " stroke="#335c5f" stroke-width="1.5" stroke-opacity="1" stroke-miterlimit="10"/><path stroke-linecap="round" transform="matrix(4.601227, 0, 0, 4.601227, -42.791407, -42.791412)" fill-opacity="1" fill="#9dd1d9" fill-rule="nonzero" stroke-linejoin="round" d="M 23.235651 55.883194 L 56.942693 55.883194 L 56.942693 58.970856 L 23.235651 58.970856 Z M 23.235651 55.883194 " stroke="#335c5f" stroke-width="1.5" stroke-opacity="1" stroke-miterlimit="10"/><path fill="#89b7bf" d="M 207.71875 242.757812 L 219.214844 242.757812 L 219.214844 256.964844 L 207.71875 256.964844 Z M 207.71875 242.757812 " fill-opacity="1" fill-rule="nonzero"/><path fill="#89b7bf" d="M 207.71875 214.339844 L 219.214844 214.339844 L 219.214844 228.546875 L 207.71875 228.546875 Z M 207.71875 214.339844 " fill-opacity="1" fill-rule="nonzero"/><path fill="#89b7bf" d="M 207.71875 271.167969 L 219.214844 271.167969 L 219.214844 285.386719 L 207.71875 285.386719 Z M 207.71875 271.167969 " fill-opacity="1" fill-rule="nonzero"/><path stroke-linecap="round" transform="matrix(4.601227, 0, 0, 4.601227, -42.791407, -42.791412)" fill="none" stroke-linejoin="round" d="M 10.00039 10.000391 L 10.00039 18.235287 L 16.17826 18.235287 L 17.776848 15.03811 C 18.02814 14.531282 18.699666 14.117839 19.265072 14.117839 L 29.558692 14.117839 C 30.126646 14.117839 30.794776 14.531282 31.050312 15.03811 L 32.648901 18.235287 L 80.002949 18.235287 L 80.002949 10.000391 Z M 10.00039 10.000391 " stroke="#335c5f" stroke-width="1.5" stroke-opacity="1" stroke-miterlimit="10"/><path stroke-linecap="round" transform="matrix(4.601227, 0, 0, 4.601227, -42.791407, -42.791412)" fill="none" stroke-linejoin="round" d="M 60.485396 43.014683 L 86.457579 43.014683 L 86.457579 80.795028 L 60.485396 80.795028 Z M 60.485396 43.014683 " stroke="#335c5f" stroke-width="1.5" stroke-opacity="1" stroke-miterlimit="10"/><path stroke-linecap="round" transform="matrix(4.601227, 0, 0, 4.601227, -42.791407, -42.791412)" fill="none" stroke-linejoin="round" d="M 14.999057 24.999787 L 23.235651 24.999787 L 23.235651 28.088298 L 14.999057 28.088298 Z M 14.999057 24.999787 " stroke="#335c5f" stroke-width="1.5" stroke-opacity="1" stroke-miterlimit="10"/><path stroke-linecap="round" transform="matrix(4.601227, 0, 0, 4.601227, -42.791407, -42.791412)" fill="none" stroke-linejoin="round" d="M 27.353948 24.999787 L 43.822042 24.999787 L 43.822042 28.088298 L 27.353948 28.088298 Z M 27.353948 24.999787 " stroke="#335c5f" stroke-width="1.5" stroke-opacity="1" stroke-miterlimit="10"/><path stroke-linecap="round" transform="matrix(4.601227, 0, 0, 4.601227, -42.791407, -42.791412)" fill="none" stroke-linejoin="round" d="M 23.235651 31.174261 L 39.703745 31.174261 L 39.703745 34.265319 L 23.235651 34.265319 Z M 23.235651 31.174261 " stroke="#335c5f" stroke-width="1.5" stroke-opacity="1" stroke-miterlimit="10"/><path stroke-linecap="round" transform="matrix(4.601227, 0, 0, 4.601227, -42.791407, -42.791412)" fill="none" stroke-linejoin="round" d="M 43.82374 31.174261 L 56.176084 31.174261 L 56.176084 34.265319 L 43.82374 34.265319 Z M 43.82374 31.174261 " stroke="#335c5f" stroke-width="1.5" stroke-opacity="1" stroke-miterlimit="10"/><path stroke-linecap="round" transform="matrix(4.601227, 0, 0, 4.601227, -42.791407, -42.791412)" fill="none" stroke-linejoin="round" d="M 23.235651 37.352131 L 27.353099 37.352131 L 27.353099 40.44234 L 23.235651 40.44234 Z M 23.235651 37.352131 " stroke="#335c5f" stroke-width="1.5" stroke-opacity="1" stroke-miterlimit="10"/><path stroke-linecap="round" transform="matrix(4.601227, 0, 0, 4.601227, -42.791407, -42.791412)" fill="none" stroke-linejoin="round" d="M 31.471396 37.352131 L 52.058636 37.352131 L 52.058636 40.44234 L 31.471396 40.44234 Z M 31.471396 37.352131 " stroke="#335c5f" stroke-width="1.5" stroke-opacity="1" stroke-miterlimit="10"/><path stroke-linecap="round" transform="matrix(4.601227, 0, 0, 4.601227, -42.791407, -42.791412)" fill="none" stroke-linejoin="round" d="M 23.235651 43.529152 L 35.587146 43.529152 L 35.587146 46.61936 L 23.235651 46.61936 Z M 23.235651 43.529152 " stroke="#335c5f" stroke-width="1.5" stroke-opacity="1" stroke-miterlimit="10"/><path stroke-linecap="round" transform="matrix(4.601227, 0, 0, 4.601227, -42.791407, -42.791412)" fill="none" stroke-linejoin="round" d="M 14.999057 49.706173 L 19.115656 49.706173 L 19.115656 52.794684 L 14.999057 52.794684 Z M 14.999057 49.706173 " stroke="#335c5f" stroke-width="1.5" stroke-opacity="1" stroke-miterlimit="10"/><path stroke-linecap="round" transform="matrix(4.601227, 0, 0, 4.601227, -42.791407, -42.791412)" fill="none" stroke-linejoin="round" d="M 23.235651 49.706173 L 43.82374 49.706173 L 43.82374 52.794684 L 23.235651 52.794684 Z M 23.235651 49.706173 " stroke="#335c5f" stroke-width="1.5" stroke-opacity="1" stroke-miterlimit="10"/><path stroke-linecap="round" transform="matrix(4.601227, 0, 0, 4.601227, -42.791407, -42.791412)" fill="none" stroke-linejoin="round" d="M 47.941188 49.706173 L 52.057787 49.706173 L 52.057787 52.794684 L 47.941188 52.794684 Z M 47.941188 49.706173 " stroke="#335c5f" stroke-width="1.5" stroke-opacity="1" stroke-miterlimit="10"/><path stroke-linecap="round" transform="matrix(4.601227, 0, 0, 4.601227, -42.791407, -42.791412)" fill="none" stroke-linejoin="round" d="M 64.72 55.029142 L 82.221277 55.029142 L 82.221277 60.028658 L 64.72 60.028658 Z M 64.72 55.029142 " stroke="#335c5f" stroke-width="1.5" stroke-opacity="1" stroke-miterlimit="10"/><path stroke-linecap="round" transform="matrix(4.601227, 0, 0, 4.601227, -42.791407, -42.791412)" fill="none" stroke-linejoin="round" d="M 64.72 63.779356 L 82.221277 63.779356 L 82.221277 68.781418 L 64.72 68.781418 Z M 64.72 63.779356 " stroke="#335c5f" stroke-width="1.5" stroke-opacity="1" stroke-miterlimit="10"/><path stroke-linecap="round" transform="matrix(4.601227, 0, 0, 4.601227, -42.791407, -42.791412)" fill="none" stroke-linejoin="round" d="M 39.703745 43.529152 L 56.942693 43.529152 L 56.942693 46.61936 L 39.703745 46.61936 Z M 39.703745 43.529152 " stroke="#335c5f" stroke-width="1.5" stroke-opacity="1" stroke-miterlimit="10"/><path stroke-linecap="round" transform="matrix(4.601227, 0, 0, 4.601227, -42.791407, -42.791412)" fill="none" stroke-linejoin="round" d="M 45.690599 68.23384 L 56.942693 68.23384 L 56.942693 71.324048 L 45.690599 71.324048 Z M 45.690599 68.23384 " stroke="#335c5f" stroke-width="1.5" stroke-opacity="1" stroke-miterlimit="10"/><path stroke-linecap="round" transform="matrix(4.601227, 0, 0, 4.601227, -42.791407, -42.791412)" fill="none" stroke-linejoin="round" d="M 45.690599 62.059366 L 56.942693 62.059366 L 56.942693 65.147028 L 45.690599 65.147028 Z M 45.690599 62.059366 " stroke="#335c5f" stroke-width="1.5" stroke-opacity="1" stroke-miterlimit="10"/><path stroke-linecap="round" transform="matrix(4.601227, 0, 0, 4.601227, -42.791407, -42.791412)" fill="none" stroke-linejoin="round" d="M 23.235651 55.883194 L 56.942693 55.883194 L 56.942693 58.970856 L 23.235651 58.970856 Z M 23.235651 55.883194 " stroke="#335c5f" stroke-width="1.5" stroke-opacity="1" stroke-miterlimit="10"/><path stroke-linecap="round" transform="matrix(4.601227, 0, 0, 4.601227, -42.791407, -42.791412)" fill="none" stroke-linejoin="round" d="M 32.642109 18.235287 L 32.648901 18.235287 L 31.050312 15.03811 C 30.794776 14.531282 30.126646 14.117839 29.558692 14.117839 L 19.265072 14.117839 C 18.699666 14.117839 18.02814 14.531282 17.776848 15.03811 L 16.17826 18.235287 L 16.180807 18.235287 L 10.00039 18.235287 L 10.00039 79.997856 L 20.305046 79.997856 C 19.613145 78.390778 17.844765 77.569835 16.187598 78.018085 C 16.095062 77.367783 16.029692 76.704747 16.029692 76.028127 C 16.029692 75.348111 16.095062 74.690168 16.187598 74.039866 C 17.859197 74.490663 19.643708 73.656986 20.32627 72.016798 C 21.002041 70.384252 20.329666 68.530976 18.831255 67.672679 C 19.630974 66.602991 20.574166 65.657251 21.644703 64.859231 C 22.503 66.356793 24.35288 67.029168 25.993067 66.35085 C 27.629859 65.670835 28.46014 63.888022 28.012739 62.215574 C 28.667286 62.123887 29.326078 62.061913 30.000151 62.061913 C 30.679317 62.061913 31.33726 62.124736 31.990958 62.215574 C 31.536765 63.888022 32.369594 65.670835 34.01063 66.35085 C 35.650818 67.029168 37.499849 66.356793 38.362391 64.854986 C 39.43038 65.656403 40.377818 66.602991 41.176688 67.672679 C 39.678276 68.530127 39.005901 70.378309 39.680823 72.016798 C 40.35999 73.65359 42.147896 74.492361 43.816099 74.039866 C 43.906089 74.690168 43.974005 75.34896 43.974005 76.028127 C 43.974005 76.705595 43.906089 77.367783 43.816099 78.018085 C 42.158932 77.570684 40.394797 78.383137 39.702896 79.997856 L 56.94524 79.997856 L 56.94524 40.415173 C 56.94524 37.675584 59.164417 35.457256 61.898912 35.457256 L 80.002949 35.457256 L 80.002949 18.235287 Z M 32.642109 18.235287 " stroke="#335c5f" stroke-width="1.5" stroke-opacity="1" stroke-miterlimit="10"/></svg>